<svg xmlns="http://www.w3.org/2000/svg" width="491.19" height="337.1" viewBox="1816.28 1327.35 491.19 337.10" fill="none"><path d="M1864.91 1347.35H2258.83C2274.64 1347.35 2287.47 1360.18 2287.47 1375.98V1615.81C2287.47 1631.62 2274.64 1644.45 2258.83 1644.45H1864.91C1849.11 1644.45 1836.28 1631.62 1836.28 1615.81V1375.98C1836.28 1360.18 1849.11 1347.35 1864.91 1347.35Z" fill="#A1E6FB" />
<path d="M2218.76 1475.17L2174.98 1476.74L2171.4 1396.03L2133.81 1395.35V1408.73H2102.69V1358.6L2037.34 1360.39L2035.55 1427.37H2015.04L2014.14 1397.12L1918.79 1395.33L1928.24 1626.6H2273.5V1385.85H2218.76V1475.17Z" fill="#C5EEFF" />
<path d="M2131.8 1526.7H2110.92V1566.91H2131.8V1526.7Z" fill="#D9F5FF" />
<path d="M2129.74 1516.14L2127.67 1557.48L2218.76 1569.76V1500.71H2151.19L2129.74 1516.14Z" fill="#D9F5FF" />
<path d="M1996.01 1477.97L1963.6 1490.62L1962.12 1574.88V1607.09L2087.36 1604.34L2074.02 1477.97H1996.01Z" fill="#D9F5FF" />
<path d="M2127.67 1449.89H2118.02V1464.74H2127.67V1449.89Z" fill="#D9F5FF" />
<path d="M2141.46 1449.93H2131.8V1464.78H2141.46V1449.93Z" fill="#D9F5FF" />
<path d="M2213.23 1573.75C2215.16 1564.18 2209.12 1554.81 2199.56 1552.55C2196.12 1551.85 2192.55 1552.29 2189.39 1553.79C2191.2 1547.6 2187.81 1541.08 2181.66 1538.98C2177.31 1537.68 2172.6 1539.2 2169.84 1542.78C2166.92 1528.44 2152.84 1519.18 2138.4 1522.08C2138.03 1522.15 2137.66 1522.24 2137.29 1522.33C2128.73 1524.71 2121.88 1531.08 2118.93 1539.4C2115.99 1534.4 2109.52 1532.71 2104.48 1535.63C2104.22 1535.79 2103.96 1535.95 2103.71 1536.13C2099.78 1538.99 2097.99 1543.92 2099.16 1548.61C2088.83 1545.02 2077.53 1550.42 2073.91 1560.67C2073.79 1561.01 2073.67 1561.37 2073.57 1561.72C2072.25 1565.72 2072.09 1570 2073.11 1574.08C2066.35 1578.26 2062.14 1585.52 2061.88 1593.42H2228.08C2227.59 1585.12 2219.96 1577.72 2213.23 1573.75Z" fill="#23B760" />
<path d="M2003.16 1573.75C2005.1 1564.18 1999.06 1554.81 1989.49 1552.55C1986.06 1551.85 1982.49 1552.29 1979.32 1553.79C1981.14 1547.6 1977.74 1541.08 1971.6 1538.98C1967.24 1537.68 1962.54 1539.2 1959.78 1542.78C1956.85 1528.44 1942.78 1519.18 1928.34 1522.08C1927.96 1522.15 1927.59 1522.24 1927.22 1522.33C1918.67 1524.71 1911.82 1531.08 1908.87 1539.4C1905.93 1534.4 1899.46 1532.71 1894.42 1535.63C1894.15 1535.79 1893.9 1535.95 1893.65 1536.13C1889.72 1538.99 1887.92 1543.92 1889.09 1548.61C1878.77 1545.02 1867.46 1550.42 1863.84 1560.67C1863.72 1561.01 1863.61 1561.37 1863.5 1561.72C1862.18 1565.72 1862.02 1570 1863.04 1574.08C1856.29 1578.26 1852.07 1585.52 1851.82 1593.42H2018.02C2017.52 1585.12 2009.9 1577.72 2003.16 1573.75Z" fill="#23B760" />
<path d="M2258.83 1347.35H2230.6V1562.7H2287.47V1375.98C2287.47 1360.17 2274.65 1347.35 2258.83 1347.35Z" fill="#C34B8A" />
<path d="M2273.5 1401.29C2272.07 1401.29 2270.9 1402.45 2270.9 1403.89V1408.61C2270.9 1410.05 2272.07 1411.21 2273.5 1411.21H2287.47V1401.29H2273.5Z" fill="#B82B7E" />
<path d="M2243.8 1352.31H2263.41C2264.84 1352.31 2266 1351.15 2266 1349.71V1348.25C2263.71 1347.66 2261.31 1347.35 2258.83 1347.35H2241.2V1349.71C2241.2 1351.15 2242.36 1352.31 2243.8 1352.31Z" fill="#B82B7E" />
<path d="M2287.47 1430.71H2197.34V1569.76H2287.47V1430.71Z" fill="#C34B8A" />
<path d="M2192.5 1569.08V1571.26V1571.42V1594.08H2287.47V1569.08H2192.5Z" fill="#CBDEFF" />
<path d="M2287.47 1467.36H2213.05V1554.24H2287.47V1467.36Z" fill="#77CFF3" />
<path d="M2218.42 1475.17V1486.68L2287.47 1536.25V1524.73L2218.42 1475.17Z" fill="white" />
<path d="M2233.19 1477.46L2287.47 1516.43V1477.46H2233.19Z" fill="white" />
<path d="M2216.62 1550.67V1470.94H2287.47V1463.79H2209.47V1557.82H2287.47V1550.67H2216.62Z" fill="#B82B7E" />
<path d="M2188.62 1416.35C2181.6 1416.35 2175.91 1420.79 2175.91 1426.26C2175.91 1431.74 2181.6 1436.18 2188.62 1436.18H2287.47V1416.35L2188.62 1416.35Z" fill="#3F7DF0" />
<path d="M2287.47 1435.9H2184.02V1448.64H2287.47V1435.9Z" fill="white" />
<path d="M2168.29 1475.73H2196.22L2211.95 1448.64H2184.02L2168.29 1475.73Z" fill="#3F7DF0" />
<path d="M2181.83 1489.56C2189.43 1489.56 2195.82 1483.39 2196.18 1475.72H2168.29C2168.23 1483.39 2174.22 1489.56 2181.83 1489.56Z" fill="#115AC2" />
<path d="M2196.22 1475.73H2224.15L2239.86 1448.64H2211.95L2196.22 1475.73Z" fill="white" />
<path d="M2209.75 1489.56C2217.37 1489.56 2223.75 1483.39 2224.1 1475.72H2196.2C2196.15 1483.39 2202.13 1489.56 2209.75 1489.56Z" fill="#CBDEFF" />
<path d="M2224.15 1475.73H2252.06L2267.79 1448.64H2239.86L2224.15 1475.73Z" fill="#3F7DF0" />
<path d="M2237.68 1489.56C2245.3 1489.56 2251.68 1483.39 2252.03 1475.72H2224.13C2224.07 1483.39 2230.06 1489.56 2237.68 1489.56Z" fill="#115AC2" />
<path d="M2252.06 1475.73H2279.99L2287.47 1462.83V1448.64H2267.79L2252.06 1475.73Z" fill="white" />
<path d="M2265.59 1489.56C2273.21 1489.56 2279.59 1483.39 2279.94 1475.72H2252.06C2252 1483.39 2257.97 1489.56 2265.59 1489.56Z" fill="#CBDEFF" />
<path d="M2279.99 1475.73H2287.47V1462.83L2279.99 1475.73Z" fill="#3F7DF0" />
<path d="M2279.99 1475.72C2279.94 1481.18 2282.97 1485.86 2287.47 1488.12V1475.72H2279.99Z" fill="#115AC2" />
<path d="M2285.35 1365.18H2256.17C2252.07 1365.18 2248.74 1368.5 2248.74 1372.61V1385.97C2248.74 1390.08 2252.07 1393.41 2256.17 1393.41H2287.47V1375.98C2287.47 1372.16 2286.71 1368.51 2285.35 1365.18Z" fill="#CBDEFF" />
<path d="M2203.26 1527.52V1532.25C2203.26 1533.68 2204.42 1534.84 2205.86 1534.84H2211.18V1524.93H2205.86C2204.42 1524.93 2203.26 1526.09 2203.26 1527.52Z" fill="#B82B7E" />
<path d="M1929.61 1347.35H1864.91C1849.1 1347.35 1836.28 1360.17 1836.28 1375.98V1595H1929.61L1929.61 1347.35Z" fill="#00A89C" />
<path d="M1934.92 1565.58C1934.92 1561.96 1931.98 1559.03 1928.36 1559.03H1836.28V1607.09H1934.92V1565.58Z" fill="#009C8E" />
<path d="M1866.85 1460.39H1924.52C1926.01 1460.39 1927.21 1459.19 1927.21 1457.71C1927.21 1456.22 1926.01 1455.02 1924.52 1455.02H1869.54V1347.35H1864.91C1864.66 1347.35 1864.42 1347.36 1864.17 1347.37V1457.71C1864.17 1459.19 1865.37 1460.39 1866.85 1460.39Z" fill="#2C6D71" />
<path d="M1867.61 1400.22H1836.28V1405.59H1867.61V1400.22Z" fill="#2C6D71" />
<path d="M1927.6 1474.98L1922.56 1476.84C1926.78 1488.29 1933.87 1494.88 1944.22 1496.98L1945.29 1491.72C1936.8 1490 1931.17 1484.68 1927.6 1474.98Z" fill="#2C6D71" />
<path d="M1948.96 1429.55H1898.55V1485.13H1948.96C1951.27 1485.13 1953.15 1483.25 1953.15 1480.94V1433.74C1953.15 1431.42 1951.27 1429.55 1948.96 1429.55Z" fill="#BAC3ED" />
<path d="M1881.53 1433.74V1480.94C1881.53 1483.25 1883.41 1485.13 1885.72 1485.13H1899.76V1429.55H1885.72C1883.41 1429.55 1881.53 1431.42 1881.53 1433.74Z" fill="white" />
<path d="M1928.24 1474.72C1938.42 1474.72 1946.67 1466.39 1946.67 1456.12C1946.67 1445.86 1938.42 1437.53 1928.24 1437.53C1918.07 1437.53 1909.82 1445.86 1909.82 1456.12C1909.82 1466.39 1918.07 1474.72 1928.24 1474.72Z" fill="#666696" />
<path d="M1928.24 1465.67C1933.47 1465.67 1937.7 1461.4 1937.7 1456.12C1937.7 1450.85 1933.47 1446.58 1928.24 1446.58C1923.02 1446.58 1918.79 1450.85 1918.79 1456.12C1918.79 1461.4 1923.02 1465.67 1928.24 1465.67Z" fill="white" />
<path d="M1896.47 1442.02H1884.78C1884.32 1442.02 1883.94 1442.39 1883.94 1442.85V1442.89C1883.94 1443.34 1884.32 1443.72 1884.78 1443.72H1896.47C1896.94 1443.72 1897.31 1443.34 1897.31 1442.89V1442.85C1897.31 1442.39 1896.94 1442.02 1896.47 1442.02Z" fill="#CBDEFF" />
<path d="M1884.77 1445.91H1896.48C1896.94 1445.91 1897.31 1446.29 1897.31 1446.74V1446.78C1897.31 1447.24 1896.94 1447.61 1896.48 1447.61H1884.77C1884.31 1447.61 1883.94 1447.24 1883.94 1446.78V1446.74C1883.94 1446.29 1884.31 1445.91 1884.77 1445.91Z" fill="#CBDEFF" />
<path d="M1896.47 1450.1H1884.78C1884.32 1450.1 1883.94 1450.48 1883.94 1450.94V1450.97C1883.94 1451.43 1884.32 1451.8 1884.78 1451.8H1896.47C1896.94 1451.8 1897.31 1451.43 1897.31 1450.97V1450.94C1897.31 1450.48 1896.94 1450.1 1896.47 1450.1Z" fill="#CBDEFF" />
<path d="M1896.47 1454.03H1884.78C1884.32 1454.03 1883.94 1454.4 1883.94 1454.86V1454.89C1883.94 1455.35 1884.32 1455.73 1884.78 1455.73H1896.47C1896.94 1455.73 1897.31 1455.35 1897.31 1454.89V1454.86C1897.31 1454.4 1896.94 1454.03 1896.47 1454.03Z" fill="#CBDEFF" />
<path d="M1896.48 1458.35H1884.77C1884.31 1458.35 1883.94 1458.73 1883.94 1459.18V1459.22C1883.94 1459.68 1884.31 1460.05 1884.77 1460.05H1896.48C1896.94 1460.05 1897.31 1459.68 1897.31 1459.22V1459.18C1897.31 1458.73 1896.94 1458.35 1896.48 1458.35Z" fill="#CBDEFF" />
<path d="M1896.48 1462.28H1884.77C1884.31 1462.28 1883.94 1462.65 1883.94 1463.11V1463.14C1883.94 1463.6 1884.31 1463.97 1884.77 1463.97H1896.48C1896.94 1463.97 1897.31 1463.6 1897.31 1463.14V1463.11C1897.31 1462.65 1896.94 1462.28 1896.48 1462.28Z" fill="#CBDEFF" />
<path d="M1884.77 1466.47H1896.48C1896.94 1466.47 1897.31 1466.84 1897.31 1467.3V1467.33C1897.31 1467.79 1896.94 1468.17 1896.48 1468.17H1884.77C1884.31 1468.17 1883.94 1467.79 1883.94 1467.33V1467.3C1883.94 1466.84 1884.31 1466.47 1884.77 1466.47Z" fill="#CBDEFF" />
<path d="M1896.47 1470.36H1884.78C1884.32 1470.36 1883.94 1470.73 1883.94 1471.19V1471.23C1883.94 1471.69 1884.32 1472.06 1884.78 1472.06H1896.47C1896.94 1472.06 1897.31 1471.69 1897.31 1471.23V1471.19C1897.31 1470.73 1896.94 1470.36 1896.47 1470.36Z" fill="#CBDEFF" />
<path d="M1945.95 1500.71C1945.02 1500.71 1944.27 1503 1944.27 1504.72C1944.27 1506.44 1945.02 1506.94 1945.95 1506.94C1946.88 1506.94 1947.64 1506.44 1947.64 1504.72C1947.64 1503 1946.88 1500.71 1945.95 1500.71Z" fill="#86ADFF" />
<path d="M1945.95 1512.6C1944.62 1512.6 1943.55 1515.87 1943.55 1518.32C1943.55 1520.78 1944.62 1521.49 1945.95 1521.49C1947.28 1521.49 1948.36 1520.78 1948.36 1518.32C1948.36 1515.87 1947.28 1512.6 1945.95 1512.6Z" fill="#86ADFF" />
<path d="M1945.95 1550.75C1944.28 1550.75 1942.93 1554.86 1942.93 1557.95C1942.93 1561.03 1944.28 1561.93 1945.95 1561.93C1947.63 1561.93 1948.98 1561.03 1948.98 1557.95C1948.98 1554.86 1947.63 1550.75 1945.95 1550.75Z" fill="#86ADFF" />
<path d="M1864.91 1644.45H2258.83C2274.65 1644.45 2287.47 1631.63 2287.47 1615.81V1593.15H1836.28V1615.81C1836.28 1631.63 1849.1 1644.45 1864.91 1644.45Z" fill="#8C819C" />
<path d="M1956.11 1612.3C1967.82 1612.3 1977.3 1609.97 1977.3 1607.09C1977.3 1604.21 1967.82 1601.88 1956.11 1601.88C1944.41 1601.88 1934.92 1604.21 1934.92 1607.09C1934.92 1609.97 1944.41 1612.3 1956.11 1612.3Z" fill="#86ADFF" />
<path d="M2083.56 1607.61C2035.21 1607.61 1996.01 1613.62 1996.01 1621.04C1996.01 1628.47 2035.21 1634.48 2083.56 1634.48C2131.92 1634.48 2171.12 1628.47 2171.12 1621.04C2171.12 1613.62 2131.92 1607.61 2083.56 1607.61Z" fill="#7B6E90" />
<path d="M1985.84 1423.98H1979.62V1590.11H1985.84V1423.98Z" fill="#666696" />
<path d="M1987.62 1536.3C1986.25 1535.3 1984.45 1534.77 1982.6 1534.8C1980.77 1534.8 1979.01 1535.35 1977.66 1536.34C1976.32 1537.33 1975.49 1538.7 1975.35 1540.16L1970.6 1589.11L1994.77 1588.94L1989.99 1540.16C1989.84 1538.68 1988.99 1537.3 1987.62 1536.3Z" fill="#49497D" />
<path d="M1994.7 1585.31H1970.49C1969.37 1585.32 1968.27 1585.56 1967.24 1586.01C1966.22 1586.46 1965.28 1587.1 1964.51 1587.9C1963.73 1588.71 1963.12 1589.66 1962.71 1590.7C1962.3 1591.74 1962.1 1592.85 1962.12 1593.97H2003.11C2003.14 1591.71 2002.27 1589.52 2000.7 1587.9C1999.12 1586.28 1996.96 1585.35 1994.7 1585.31Z" fill="#343466" />
<path d="M2005.99 1407.34C2011.41 1394.26 2005.19 1379.26 1992.11 1373.85C1979.03 1368.43 1964.04 1374.64 1958.62 1387.72C1953.2 1400.8 1959.41 1415.8 1972.49 1421.22C1985.57 1426.63 2000.57 1420.42 2005.99 1407.34Z" fill="#FBFB98" />
<path d="M1982.73 1423.54C1987.96 1423.54 1992.2 1417.07 1992.2 1409.1C1992.2 1401.13 1987.96 1394.66 1982.73 1394.66C1977.5 1394.66 1973.26 1401.13 1973.26 1409.1C1973.26 1417.07 1977.5 1423.54 1982.73 1423.54Z" fill="#FFEA63" />
<path d="M1998.53 1415.94H1966.88C1965.07 1415.94 1963.6 1417.41 1963.6 1419.23V1420.02C1963.6 1421.84 1965.07 1423.31 1966.88 1423.31H1973.88C1974.18 1425.05 1974.98 1426.67 1976.25 1427.93C1976.85 1428.54 1977.55 1429 1978.29 1429.4C1976.8 1429.71 1975.66 1430.97 1975.66 1432.55V1433.35C1975.66 1435.16 1977.13 1436.63 1978.95 1436.63H1986.46C1988.27 1436.63 1989.75 1435.16 1989.75 1433.35V1432.55C1989.75 1430.76 1988.31 1429.32 1986.53 1429.28C1987.19 1428.9 1987.81 1428.48 1988.36 1427.93C1989.62 1426.67 1990.43 1425.05 1990.72 1423.31H1998.53C2000.34 1423.31 2001.81 1421.84 2001.81 1420.02V1419.23C2001.81 1417.41 2000.34 1415.94 1998.53 1415.94Z" fill="#49497D" />
<path d="M2144.98 1423.98H2138.76V1590.11H2144.98V1423.98Z" fill="#666696" />
<path d="M2146.76 1536.3C2145.39 1535.3 2143.59 1534.77 2141.74 1534.8C2139.91 1534.8 2138.15 1535.35 2136.8 1536.34C2135.46 1537.33 2134.63 1538.7 2134.49 1540.16L2129.74 1589.11L2153.91 1588.94L2149.13 1540.16C2148.98 1538.68 2148.13 1537.3 2146.76 1536.3Z" fill="#49497D" />
<path d="M2153.84 1585.31H2129.63C2128.51 1585.32 2127.41 1585.56 2126.38 1586.01C2125.36 1586.46 2124.43 1587.1 2123.65 1587.9C2122.87 1588.71 2122.26 1589.66 2121.85 1590.7C2121.44 1591.74 2121.24 1592.85 2121.26 1593.97H2162.25C2162.28 1591.71 2161.41 1589.53 2159.84 1587.9C2158.26 1586.28 2156.1 1585.35 2153.84 1585.31Z" fill="#343466" />
<path d="M2145.55 1422.84C2159.52 1420.57 2169.02 1407.4 2166.75 1393.43C2164.48 1379.45 2151.31 1369.96 2137.34 1372.23C2123.36 1374.49 2113.87 1387.66 2116.14 1401.64C2118.41 1415.61 2131.57 1425.1 2145.55 1422.84Z" fill="#FBFB98" />
<path d="M2141.87 1423.54C2147.1 1423.54 2151.34 1417.07 2151.34 1409.1C2151.34 1401.13 2147.1 1394.66 2141.87 1394.66C2136.64 1394.66 2132.4 1401.13 2132.4 1409.1C2132.4 1417.07 2136.64 1423.54 2141.87 1423.54Z" fill="#FFEA63" />
<path d="M2157.67 1415.94H2126.02C2124.21 1415.94 2122.74 1417.41 2122.74 1419.23V1420.02C2122.74 1421.84 2124.21 1423.31 2126.02 1423.31H2133.02C2133.32 1425.05 2134.12 1426.67 2135.39 1427.93C2135.99 1428.54 2136.69 1429 2137.43 1429.4C2135.94 1429.71 2134.8 1430.97 2134.8 1432.55V1433.35C2134.8 1435.16 2136.27 1436.63 2138.09 1436.63H2145.6C2147.41 1436.63 2148.89 1435.16 2148.89 1433.35V1432.55C2148.89 1430.76 2147.45 1429.32 2145.67 1429.28C2146.33 1428.9 2146.95 1428.48 2147.5 1427.93C2148.76 1426.67 2149.57 1425.05 2149.86 1423.31H2157.67C2159.48 1423.31 2160.95 1421.84 2160.95 1420.02V1419.23C2160.95 1417.41 2159.48 1415.94 2157.67 1415.94Z" fill="#49497D" />
<path d="M2086.99 1532.47C2073.11 1531.29 2059.34 1531.69 2045.67 1533.55C2041.94 1543.25 2035.89 1554.06 2033.35 1575.61C2030.76 1585.68 2028.59 1599.09 2025.99 1611.16L2037.97 1612.84C2041.59 1604.12 2046.69 1589.03 2047.39 1583.08L2058.8 1558.42H2063.8L2061.72 1581.04C2055.97 1589.53 2059.82 1603.11 2058.47 1616.44H2083.67L2071.16 1608.87L2075.27 1582.06C2082.23 1568.99 2086.25 1553.28 2086.99 1532.47Z" fill="#FFC2C4" />
<path d="M2093.1 1513.84C2094.69 1508.31 2097.1 1498.13 2097.1 1498.13L2104.73 1499.88C2104.73 1499.88 2105.61 1525.47 2095.78 1526.52C2085.95 1527.56 2075.15 1519.71 2075.15 1519.71L2077.03 1499.41C2082.5 1503.92 2093.1 1513.84 2093.1 1513.84Z" fill="#FFC2C4" />
<path d="M2046.9 1500.49C2044.29 1503.13 2028.52 1530.62 2020.82 1546.68L2027.37 1550.75C2032.73 1545.49 2037.72 1539.54 2040.73 1531.8L2052.31 1518.54C2052.31 1518.54 2058.24 1502.77 2046.9 1500.49Z" fill="#FFC2C4" />
<path d="M2074.64 1484.83L2067.54 1487.45L2067.2 1493.02C2069.27 1496.8 2075.61 1497.03 2080.34 1495.59C2077.03 1493.16 2074.64 1489.98 2074.64 1484.83Z" fill="#473685" />
<path d="M2058.62 1468.47C2048.86 1468.47 2040.95 1474.58 2040.95 1482.13C2040.95 1489.67 2048.86 1495.78 2058.62 1495.78C2068.38 1495.78 2076.29 1489.67 2076.29 1482.13C2076.29 1474.58 2068.38 1468.47 2058.62 1468.47Z" fill="#473685" />
<path d="M2064.67 1476.98L2044.49 1474.14C2045.5 1484.52 2042.87 1490.9 2037.7 1494.57C2050.83 1498.29 2055.49 1492.93 2059.73 1486.45L2064.67 1484.84V1476.98Z" fill="#473685" />
<path d="M2080.07 1475.93L2066.63 1484.65C2070.75 1492.66 2077.99 1495.01 2086.14 1490.43C2080.91 1487.32 2080.73 1484.97 2080.07 1475.93Z" fill="#473685" />
<path d="M2075.03 1443.03C2072.4 1444.96 2073.64 1449.23 2075.66 1452.55C2078.46 1457.16 2083.69 1458.85 2086.45 1456.39C2088.8 1454.29 2088.32 1450.07 2086.07 1446.85C2083.41 1443.05 2077.97 1440.87 2075.03 1443.03Z" fill="#2E2684" />
<path d="M2063.77 1496.35C2055.21 1496.42 2046.9 1500.49 2046.9 1500.49L2045.67 1533.55L2086.99 1532.47C2086.36 1521.1 2082.75 1510.13 2077.03 1499.41C2077.03 1499.41 2072.33 1496.27 2063.77 1496.35Z" fill="#FFC2C4" />
<path d="M2058.86 1497.59L2070.04 1498.13L2070.79 1489.6L2059.61 1489.16L2058.86 1497.59Z" fill="#FFC2C4" />
<path d="M2059.2 1493.76C2061.23 1494.66 2063.69 1495.22 2066.67 1495.25C2067.93 1495.26 2069.15 1495.15 2070.32 1494.94L2070.79 1489.6L2059.61 1489.16L2059.2 1493.76Z" fill="#FFA9AB" />
<path d="M2077.42 1498.76L2083.11 1521.62C2086.85 1517.31 2089.93 1512.66 2091.28 1507.14C2088.09 1503.54 2083.71 1500.61 2077.42 1498.76Z" fill="#AD42B1" />
<path d="M2108.95 1492.77C2108.95 1492.77 2113.83 1484.98 2110.68 1483C2107.54 1481.02 2102.72 1489.69 2102.72 1489.69C2102.72 1489.69 2104.57 1482.63 2102.43 1482.31C2100.29 1481.99 2097.34 1492.03 2097.34 1492.03C2097.34 1492.03 2092.38 1486.77 2091.06 1489.15C2089.62 1491.68 2097.46 1499.64 2097.46 1499.64L2100.64 1501.61C2100.64 1501.61 2107.47 1503.2 2110.32 1495.89C2113.06 1494.23 2115.02 1492.55 2114.36 1491.65C2113.7 1490.74 2108.95 1492.77 2108.95 1492.77Z" fill="#FFC2C4" />
<path d="M2098.33 1492.87C2100.59 1493.53 2102.16 1494.87 2103.02 1496.92C2103.1 1494.09 2101.92 1492.39 2098.33 1492.87Z" fill="#FFA9AB" />
<path d="M2109.75 1484.73L2105.95 1490.94C2107.87 1490.01 2109.24 1488.13 2109.75 1484.73Z" fill="#FFA9AB" />
<path d="M2078.63 1461.65L2079.16 1471.14C2082.3 1469.32 2086.11 1462.44 2081.38 1453.92L2078.63 1461.65Z" fill="#473685" />
<path d="M2078.67 1459.28C2053.97 1442.76 2048.18 1464.41 2050.37 1478.71C2051.01 1483.78 2057.32 1492.42 2066.77 1493.13C2073.77 1493.64 2084.67 1486.33 2080.08 1472.03C2081.46 1467.96 2081.06 1463.77 2078.67 1459.28Z" fill="#FFC2C4" />
<path d="M2058.14 1467.98C2059.41 1466.22 2061.71 1465.41 2063.84 1465.64C2065.01 1465.78 2067.21 1466.43 2066.45 1467.99C2066.17 1468.49 2065.61 1468.71 2065.09 1468.57C2062.77 1467.72 2060.72 1467.78 2058.14 1467.98Z" fill="#30236F" />
<path d="M2078.96 1468.45C2076.82 1468.07 2075.29 1467.69 2073.4 1468.46C2072.11 1468.85 2071.28 1467.05 2072.38 1466.32C2074.6 1464.72 2078 1465.99 2078.96 1468.45Z" fill="#30236F" />
<path d="M2069.31 1475.4C2071 1478.24 2071.26 1479.36 2069.21 1480.53C2072.57 1480.71 2073.14 1477.92 2069.31 1475.4Z" fill="#E87584" />
<path d="M2055.71 1475.6C2055.31 1475.6 2055 1475.91 2055 1476.3C2055 1476.69 2055.31 1477.01 2055.71 1477.01C2056.1 1477.01 2056.41 1476.69 2056.41 1476.3C2056.41 1475.91 2056.1 1475.6 2055.71 1475.6Z" fill="#E87584" />
<path d="M2063.86 1445.71L2060.03 1449.29L2068.95 1455.11C2071.2 1461.05 2076.98 1463.82 2081.73 1465.11C2086.1 1452.55 2075.78 1440.43 2063.86 1445.71Z" fill="#473685" />
<path d="M2039.29 1468.94C2039.29 1468.94 2041.1 1484.5 2030.79 1488.01C2038.65 1494.06 2048.85 1489.65 2048.33 1477.55L2048.85 1464.7L2039.29 1468.94Z" fill="#473685" />
<path d="M2039.29 1468.94L2051.68 1469.75C2056.13 1467.86 2055.31 1463.19 2055.31 1463.19C2055.31 1463.19 2065.79 1463.19 2068.95 1455.11L2063.86 1445.71C2048.35 1439.84 2036.97 1453.2 2039.29 1468.94Z" fill="#473685" />
<path d="M2044.5 1468.38C2042.87 1469.46 2042.08 1471.43 2042.27 1473.37C2043 1480.94 2052.48 1480.7 2052.48 1480.7L2051.68 1469.75C2051.68 1469.75 2047.99 1466.06 2044.5 1468.38Z" fill="#FFC2C4" />
<path d="M2048.26 1442.91C2043.94 1441.15 2039.22 1444.63 2037.29 1448.19C2035.19 1452.07 2035.03 1459.18 2038.61 1460.91C2043.59 1463.31 2051.23 1460.21 2053.19 1454.65C2054.58 1450.72 2052.49 1444.64 2048.26 1442.91Z" fill="#2E2684" />
<path d="M2045 1438.17C2045.12 1441.44 2044.83 1444.47 2043.09 1446.64L2053.19 1454.65C2055.8 1447.95 2053.21 1442.42 2045 1438.17Z" fill="#2E2684" />
<path d="M2065.81 1483.86C2068.62 1485.22 2070.94 1484.22 2072.99 1483.59C2072.68 1481.3 2069.87 1481.28 2065.81 1483.86Z" fill="#F896A6" />
<path d="M2077.42 1498.76C2075.14 1497.89 2072.98 1497.27 2070.98 1497.03C2072.14 1502.14 2069.35 1509.86 2069.35 1509.86C2064.55 1503.01 2056.8 1496.99 2056.8 1496.99C2053.22 1497.81 2049.76 1498.94 2046.4 1500.34L2045.71 1531.85C2039.12 1542.85 2033.68 1553.43 2028.55 1564.91C2045.67 1577.55 2067.42 1584.02 2087.27 1571.21C2088.1 1560.1 2088.42 1542.76 2087.25 1532.05C2085.98 1519.7 2083.74 1507.95 2077.42 1498.76Z" fill="#C553C7" />
<path d="M2070.98 1497.03C2072.14 1502.14 2069.35 1509.86 2069.35 1509.86C2064.55 1503.01 2056.8 1496.99 2056.8 1496.99C2055.55 1497.28 2054.32 1497.6 2053.1 1497.96C2063.27 1507.11 2069.74 1515.46 2069.74 1515.46C2069.74 1515.46 2075.07 1507 2074.22 1497.7C2073.1 1497.39 2072.02 1497.16 2070.98 1497.03Z" fill="#AD42B1" />
<path d="M2071.31 1517.05C2070.41 1517.14 2069.76 1517.94 2069.84 1518.84C2069.93 1519.74 2070.73 1520.39 2071.63 1520.3C2072.53 1520.21 2073.18 1519.41 2073.09 1518.52C2073 1517.62 2072.21 1516.96 2071.31 1517.05Z" fill="#AD42B1" />
<path d="M2086.78 1527.89C2075.2 1529.69 2061.66 1529.58 2046.51 1527.58C2046.26 1527.55 2046.03 1527.56 2045.8 1527.61L2045.71 1531.85C2045.71 1531.85 2045.71 1531.85 2045.71 1531.85C2045.78 1531.87 2045.86 1531.9 2045.93 1531.91C2054.12 1532.99 2061.86 1533.53 2069.1 1533.53C2075.57 1533.53 2081.64 1533.09 2087.27 1532.23C2087.26 1532.17 2087.26 1532.11 2087.25 1532.05C2087.11 1530.66 2086.95 1529.27 2086.78 1527.89Z" fill="#AD42B1" />
<path d="M2022.01 1545.81C2012.3 1547.63 2010.17 1552.19 2010.06 1557.48L2027.03 1548.86L2028.44 1544.18L2024.36 1541.71L2022.01 1545.81Z" fill="#FFC2C4" />
<path d="M2027.72 1543.53L2026.76 1543.35L2015.72 1551.3C2015.72 1551.3 2007.29 1556.96 2009.68 1559.86C2011.43 1561.59 2019.06 1554.38 2023.45 1554.88C2023.45 1554.88 2019.95 1559.5 2021.67 1560.63C2023.39 1561.77 2030.69 1556.5 2028.56 1549.3L2027.72 1543.53Z" fill="#FFC2C4" />
<path d="M2011.44 1554.93C2013.65 1553.26 2016.05 1551.83 2018.64 1550.65C2015.55 1550.22 2013.1 1551.55 2011.44 1554.93Z" fill="#FFA9AB" />
<path d="M2046.4 1500.34C2040.54 1504.26 2036.48 1510.77 2032.35 1517.37C2036.08 1522.89 2041.95 1526.84 2048.5 1526.7C2048.5 1526.7 2057.7 1517.68 2055.29 1508.63C2052.89 1499.59 2046.4 1500.34 2046.4 1500.34Z" fill="#AD42B1" />
<path d="M2057.43 1596.27L2058.48 1608.32L2071.7 1607.4L2073.14 1596.32C2073.14 1596.32 2063.02 1594.36 2057.43 1596.27Z" fill="white" />
<path d="M2071.16 1608.87C2071.16 1608.87 2074.35 1607.2 2073.02 1605.78C2071.7 1604.35 2058.48 1608.32 2058.48 1608.32L2058.77 1610.71L2058.47 1617.09C2066.88 1618.61 2074.9 1620 2083.15 1618.46L2077.29 1611.16L2071.16 1608.87Z" fill="#473685" />
<path d="M2058.47 1617.09L2058.29 1619.98C2066.66 1621.01 2076.47 1620.98 2085.1 1619.98L2084.77 1617.11C2076.69 1617.88 2067.04 1617.85 2058.47 1617.09Z" fill="white" />
<path d="M2077.3 1611.16C2075.18 1612.67 2074.08 1615.16 2073.58 1618.23C2077.43 1618.14 2081.23 1617.77 2084.77 1617.11C2084.77 1617.11 2084.11 1611.16 2077.3 1611.16Z" fill="white" />
<path d="M2011.54 1620.53L2011.26 1623.65C2014.9 1627.83 2022.76 1627.2 2028.62 1624.05C2029.38 1623.63 2030.2 1623.34 2031.04 1623.24C2033.49 1622.96 2035.65 1622.01 2037.77 1621L2037.61 1617.94L2011.54 1620.53Z" fill="white" />
<path d="M2025.99 1610.46L2037.97 1612.84L2044.07 1598.36C2039.49 1596.15 2033.53 1595.2 2028.55 1595.09L2025.99 1610.46Z" fill="white" />
<path d="M2021.91 1607.81C2020.58 1609.22 2024.47 1611.71 2024.47 1611.71L2017.9 1616.29C2012.96 1617.43 2014.13 1622.39 2014.13 1622.39C2014.13 1622.39 2019.94 1624.1 2023.72 1622.9C2025.42 1622.37 2027.93 1621.22 2028.76 1620.8C2029.33 1620.5 2029.93 1620.29 2030.54 1620.16C2032.21 1619.82 2035.78 1618.94 2037.61 1617.94L2037.97 1612.84C2037.97 1612.84 2023.25 1606.4 2021.91 1607.81Z" fill="#473685" />
<path d="M2017.9 1616.29C2015 1616.48 2013 1618.07 2011.54 1620.53C2011.54 1620.53 2012.02 1624.09 2012.07 1624.3C2012.12 1624.51 2018.77 1624.87 2018.77 1624.87L2024.24 1623.27C2023.69 1619.9 2021.78 1617.43 2017.9 1616.29Z" fill="white" />
<path d="M2067.89 1487.57C2070.22 1489.43 2071.56 1488.85 2072.45 1487.23C2070.96 1487.63 2069.43 1487.68 2067.89 1487.57Z" fill="#FFA9AB" />
<path d="M2129.95 1580.9L2115.32 1583.55L2112.29 1602.24C2112.29 1602.24 2114.78 1599.75 2117.31 1597.89C2120.08 1595.85 2128.1 1594.91 2128.1 1594.91C2128.1 1594.91 2128.68 1597.53 2127.65 1599.95C2127.83 1599.89 2128 1599.83 2128.17 1599.77C2132.16 1598.26 2134.79 1593.76 2133.46 1589.7L2129.95 1580.9Z" fill="#DEDFEF" />
<path d="M2160.02 1592.95L2149.47 1591.69L2145.07 1611.72C2144.53 1614.18 2144.69 1616.74 2145.53 1619.11H2153.46C2153.46 1619.11 2153.93 1617.08 2152.06 1616.37C2153.46 1608.54 2161.21 1606.95 2160.02 1592.95Z" fill="#C6C6DB" />
<path d="M2118.58 1598.9C2118.65 1604.57 2114.06 1607.91 2114.06 1607.91L2113.1 1612.76C2112.68 1614.88 2112.84 1617.07 2113.56 1619.11H2121.53C2121.53 1619.11 2122 1617.08 2120.13 1616.37C2120.88 1611.71 2125.23 1609.59 2130.34 1605.88C2134.49 1602.87 2136.46 1592.21 2136.46 1592.21L2128.85 1579.78C2116.97 1584.14 2118.52 1593.83 2118.58 1598.9Z" fill="#C6C6DB" />
<path d="M2102.81 1564.18C2103.01 1568.12 2104.05 1571.97 2105.87 1575.47L2111.1 1585.58L2119.02 1580.66C2110.55 1573.39 2102.81 1564.18 2102.81 1564.18Z" fill="#DEDFEF" />
<path d="M2182.27 1562.75L2173.21 1564.78C2173.59 1563.56 2173.77 1561.8 2172.29 1560.51C2173.21 1560.44 2174.23 1560.57 2175.21 1561.14C2175.21 1561.14 2174.68 1557.27 2169.81 1556.08C2165.07 1554.93 2159 1557.13 2154.86 1561.9L2154.84 1561.9L2154.81 1561.97C2152.98 1564.09 2151.94 1564.34 2151.19 1568.11L2167.85 1583.33C2167.85 1583.33 2175.15 1584.54 2177.6 1582.57C2180.28 1580.42 2181.01 1576.82 2181.01 1576.82C2181.01 1576.82 2181.69 1579.42 2180.76 1581.87C2180.94 1581.81 2181.11 1581.74 2181.27 1581.67C2185.2 1580.01 2187 1575.42 2185.51 1571.42L2182.27 1562.75Z" fill="#DEDFEF" />
<path d="M2177.45 1563.83C2178.31 1565.65 2180.16 1566.91 2182.31 1566.91C2182.81 1566.91 2183.29 1566.84 2183.75 1566.71L2182.27 1562.75L2177.45 1563.83Z" fill="#3F3D69" />
<path d="M2118.84 1604.07L2120.13 1604.8L2121.4 1604.35C2123.18 1601.19 2123.3 1597.19 2122.92 1594.17C2122.48 1596.11 2121.16 1600.81 2118.84 1604.07Z" fill="#C6C6DB" />
<path d="M2149.61 1607.46L2152.11 1607.81C2154.28 1604.3 2153.96 1599.56 2153.49 1597.44C2152.99 1599.36 2152.03 1604.27 2149.61 1607.46Z" fill="#C6C6DB" />
<path d="M2146.82 1577.07C2142.09 1582.3 2124.73 1575.95 2114.45 1580.77C2109.27 1583.2 2108.47 1587.36 2108.47 1587.36L2111.56 1603.27L2148.35 1607.23C2152.79 1607.93 2157.15 1606.45 2160.23 1603.49C2162.08 1605.01 2164.3 1604.27 2164.3 1604.27C2164.3 1604.27 2162.65 1602.22 2164.21 1599.78C2165.29 1598.1 2166.63 1597.02 2167.13 1595.07C2167.89 1592.15 2166.5 1591.62 2168.46 1585.6L2171.12 1578.63L2151.19 1568.11C2151.19 1568.11 2150.27 1573.27 2146.82 1577.07Z" fill="#DEDFEF" />
<path d="M2153.59 1592.95L2143.03 1591.69L2138.64 1611.72C2138.1 1614.18 2138.25 1616.74 2139.09 1619.11H2147.03C2147.03 1619.11 2147.5 1617.08 2145.62 1616.37C2147.02 1608.54 2154.78 1606.95 2153.59 1592.95Z" fill="#DEDFEF" />
<path d="M2118.6 1579.67C2106.21 1581.66 2105.33 1592.31 2105.35 1598.9C2105.38 1605.41 2100.19 1607.97 2100.19 1607.97L2099.23 1612.76C2098.81 1614.88 2098.97 1617.07 2099.69 1619.11H2107.67C2107.67 1619.11 2108.14 1617.08 2106.26 1616.37C2107.01 1611.71 2111.93 1609.49 2117.11 1605.88C2123.56 1601.39 2123.23 1592.21 2123.23 1592.21L2118.6 1579.67Z" fill="#DEDFEF" />
<path d="M2155.54 1553.1C2155.38 1553.1 2155.18 1553.2 2154.89 1553.41C2153.31 1557.01 2153.13 1564.45 2154.4 1568.36C2155.64 1563.14 2159.45 1561.28 2159.45 1561.28C2158.54 1558.13 2156.53 1553.1 2155.54 1553.1Z" fill="#EE8299" />
<path d="M2154.89 1553.41C2152.08 1555.54 2148.35 1565.11 2150.91 1571.42L2154.99 1569.19L2155.3 1567.08C2153.55 1563.83 2153.71 1557.69 2154.89 1553.41Z" fill="#DEDFEF" />
<path d="M2145.91 1577.85L2167.35 1591.62L2169.9 1587.65L2148.91 1574.16C2148.13 1575.34 2147.02 1576.96 2145.91 1577.85Z" fill="#3A96D1" />
<path d="M2164.02 1564.83C2162.42 1565.88 2161.97 1568.03 2163.02 1569.64C2164.07 1571.24 2166.23 1571.69 2167.84 1570.64C2169.44 1569.59 2169.89 1567.43 2168.84 1565.83C2167.78 1564.22 2165.63 1563.77 2164.02 1564.83Z" fill="white" />
<path d="M2165.43 1564.3C2164.28 1564.06 2163.17 1564.8 2162.93 1565.94C2162.7 1567.08 2163.43 1568.2 2164.57 1568.43C2165.37 1568.6 2166.15 1568.28 2166.63 1567.69C2166.3 1567.54 2166.03 1567.23 2165.95 1566.84C2165.82 1566.2 2166.23 1565.58 2166.87 1565.44C2166.88 1565.44 2166.88 1565.44 2166.89 1565.44C2166.61 1564.88 2166.09 1564.44 2165.43 1564.3Z" fill="#010105" />
<path d="M2165.93 1562.98C2165 1562.98 2164.1 1563.24 2163.32 1563.75C2161.13 1565.19 2160.51 1568.15 2161.95 1570.34C2162.83 1571.69 2164.32 1572.49 2165.93 1572.49C2166.86 1572.49 2167.76 1572.22 2168.54 1571.71C2169.6 1571.01 2170.33 1569.94 2170.59 1568.7C2170.84 1567.46 2170.6 1566.19 2169.91 1565.12C2169.02 1563.78 2167.54 1562.98 2165.93 1562.98ZM2167.83 1570.64C2167.25 1571.02 2166.59 1571.21 2165.93 1571.21C2164.8 1571.21 2163.69 1570.66 2163.02 1569.64C2161.97 1568.03 2162.42 1565.88 2164.02 1564.83C2164.61 1564.44 2165.27 1564.26 2165.93 1564.26C2167.06 1564.26 2168.17 1564.81 2168.84 1565.83C2169.89 1567.43 2169.44 1569.59 2167.83 1570.64Z" fill="#E0DDF2" />
<path d="M2146.18 1583.36L2145.35 1584.2C2144.94 1584.61 2144.95 1585.28 2145.36 1585.69L2145.69 1586.01C2146.11 1586.42 2146.77 1586.41 2147.18 1586L2148.01 1585.15C2148.41 1584.74 2148.41 1584.08 2147.99 1583.67L2147.66 1583.35C2147.25 1582.94 2146.59 1582.95 2146.18 1583.36Z" fill="#397A98" />
<path d="M2148.93 1579.82L2147.18 1581.51C2146.44 1582.21 2146.42 1583.38 2147.12 1584.12C2147.82 1584.85 2148.99 1584.88 2149.73 1584.18L2151.48 1582.49C2152.21 1581.79 2152.24 1580.62 2151.53 1579.88C2150.83 1579.15 2149.66 1579.12 2148.93 1579.82Z" stroke="#397A98" stroke-miterlimit="10" />
<path d="M2145.94 1584.3C2145.53 1583.9 2144.88 1583.91 2144.47 1584.31C2128.18 1600.49 2108.15 1607.57 2087.36 1604.34C2060.53 1600.17 2036.23 1579.25 2023.95 1549.74C2023.02 1547.51 2023.28 1541.77 2023.28 1541.77C2020.31 1542.93 2019.1 1547.57 2020.65 1551.12C2033.93 1581.55 2058.76 1603.52 2086.81 1607.88C2090.3 1608.42 2093.76 1608.69 2097.2 1608.69C2115.39 1608.69 2132.62 1601.14 2147.02 1586.83C2147.44 1586.41 2147.43 1585.73 2147.01 1585.32L2145.94 1584.3Z" fill="#3A96D1" />
<path d="M2153.52 1576.27L2153.43 1576.2C2152.96 1575.9 2152.34 1576.03 2152.04 1576.49L2149.75 1579.98C2149.47 1580.41 2149.59 1580.99 2150.02 1581.26L2150.2 1581.38C2150.62 1581.65 2151.18 1581.54 2151.46 1581.12L2153.81 1577.67C2154.12 1577.21 2153.99 1576.57 2153.52 1576.27Z" fill="#0087C2" />
<path d="M2035 1567.55C2034.66 1567.11 2034.03 1567.02 2033.59 1567.35L2030.26 1569.86C2029.85 1570.17 2029.77 1570.75 2030.08 1571.16L2030.21 1571.33C2030.51 1571.73 2031.08 1571.81 2031.48 1571.51L2034.86 1569.06C2035.31 1568.73 2035.41 1568.09 2035.07 1567.64L2035 1567.55Z" fill="#0087C2" />
<path d="M2028.63 1549.48C2028.91 1555.09 2026.71 1557.36 2026.63 1557.48C2026.05 1558.27 2026.22 1559.39 2027.01 1559.98C2027.36 1560.23 2027.76 1560.34 2028.15 1560.32C2028.67 1560.3 2029.18 1560.05 2029.51 1559.59C2029.65 1559.41 2032.8 1554.4 2031.78 1546.11L2028.63 1549.48Z" fill="#3A96D1" />
<path d="M2073.34 1470.94L2077.31 1474.89C2078.73 1474.3 2079.14 1472.37 2078.55 1471.32C2077.24 1468.98 2074.14 1469.68 2073.34 1470.94Z" fill="#252525" />
<path d="M2075.8 1470.23C2074.2 1469.98 2072.23 1470.92 2071.9 1474.43C2071.9 1474.43 2073.08 1475.8 2075.21 1475.69C2076.97 1475.59 2077.6 1474.58 2077.6 1474.58C2078.98 1472.61 2077.84 1470.54 2075.8 1470.23Z" fill="white" />
<path d="M2075.45 1471.46C2075.44 1471.46 2075.44 1471.46 2075.43 1471.46C2075.56 1471.61 2075.65 1471.8 2075.69 1472.02C2075.8 1472.63 2075.46 1473.23 2074.93 1473.36C2074.59 1473.44 2074.26 1473.31 2074.03 1473.05C2073.98 1473.32 2073.97 1473.61 2074.02 1473.9C2074.22 1475.01 2075.19 1475.73 2076.18 1475.49C2077.17 1475.26 2077.81 1474.17 2077.61 1473.05C2077.4 1471.94 2076.44 1471.22 2075.45 1471.46Z" fill="#4E77B5" />
<path d="M2078.36 1471.41L2078.52 1472.78C2079.69 1472.89 2079.74 1471.8 2079.74 1471.8C2079.74 1471.8 2079.07 1472.19 2078.36 1471.41Z" fill="#252525" />
<path d="M2057.24 1471.11C2056.42 1472.36 2056.98 1474.65 2058.98 1475.34L2064.53 1470.66C2063.4 1469.18 2059.08 1468.34 2057.24 1471.11Z" fill="#252525" />
<path d="M2061.08 1469.83C2058.24 1470.2 2056.63 1472.65 2058.57 1474.98C2058.57 1474.98 2059.45 1476.17 2061.91 1476.28C2064.89 1476.42 2066.55 1474.8 2066.55 1474.8C2066.07 1470.64 2063.33 1469.54 2061.08 1469.83Z" fill="white" />
<path d="M2062.3 1471.47C2062.29 1471.47 2062.28 1471.47 2062.28 1471.47C2062.45 1471.65 2062.58 1471.87 2062.64 1472.13C2062.8 1472.85 2062.32 1473.56 2061.57 1473.71C2061.1 1473.81 2060.63 1473.65 2060.31 1473.35C2060.24 1473.67 2060.23 1474.01 2060.3 1474.35C2060.58 1475.67 2061.94 1476.52 2063.32 1476.24C2064.71 1475.96 2065.6 1474.67 2065.32 1473.35C2065.03 1472.03 2063.68 1471.19 2062.3 1471.47Z" fill="#4E77B5" />
<path d="M2055.58 1471.68C2055.58 1471.68 2055.64 1472.97 2057.28 1472.85L2057.51 1471.23C2056.51 1472.15 2055.58 1471.68 2055.58 1471.68Z" fill="#252525" />
<path d="M2064.21 1483.34C2070.91 1487.52 2073.98 1482.93 2073.98 1482.93C2073.98 1482.93 2070.17 1484.97 2064.21 1483.34Z" fill="#E87584" />
<path d="M1872.82 1551.17C1881.01 1548.96 1875.75 1544.71 1879.16 1543.09L1877.66 1538.08L1872.82 1551.17Z" fill="#F08485" />
<path d="M1866.85 1550.23C1875.04 1548.02 1869.77 1543.76 1873.18 1542.15L1871.69 1537.14L1866.85 1550.23Z" fill="#F08485" />
<path d="M1862.98 1513.77C1861.66 1518.81 1863.76 1522.41 1863.76 1522.41L1872 1522.55L1881.24 1509.86L1868.51 1506.11C1868.51 1506.11 1864.26 1508.9 1862.98 1513.77Z" fill="#808381" />
<path d="M1865.51 1494.06C1865.61 1496.37 1865.93 1498.79 1866.58 1501.18L1881.54 1507.01L1883.06 1504.57L1880.92 1503.07L1865.51 1494.06Z" fill="#808381" />
<path d="M1884.9 1498.4L1881.43 1495.3L1865.43 1481.43L1865.43 1481.43L1865.43 1481.43C1865.43 1481.43 1863.78 1485.47 1863.6 1489.11C1863.25 1494.26 1864.47 1500.53 1867.89 1506.47L1876.84 1512.88C1874.94 1514.92 1872.85 1518.1 1871.92 1522.79L1876.16 1522.72L1893.69 1522.43C1893.69 1522.43 1897.68 1509.55 1884.9 1498.4Z" fill="#5A4463" />
<path d="M1869.39 1497.03L1868.29 1496.59L1868.26 1496.57L1847.34 1488.38L1847.34 1488.38L1847.34 1488.38C1847.34 1488.38 1847.67 1491.75 1848.79 1495.45C1849.34 1497.38 1850.08 1499.55 1851.07 1501.76L1851.06 1501.76C1851.11 1501.86 1851.16 1501.95 1851.2 1502.05C1851.38 1502.43 1851.56 1502.82 1851.75 1503.21C1851.85 1503.41 1851.96 1503.61 1852.06 1503.81C1852.22 1504.11 1852.39 1504.42 1852.55 1504.72C1852.68 1504.94 1852.8 1505.16 1852.93 1505.38C1853.14 1505.74 1853.36 1506.1 1853.59 1506.46C1853.7 1506.63 1853.8 1506.79 1853.92 1506.96C1854.19 1507.38 1854.48 1507.79 1854.78 1508.19C1854.82 1508.25 1854.85 1508.3 1854.9 1508.36L1854.91 1508.36C1856.02 1509.84 1857.28 1511.23 1858.72 1512.46C1858.72 1512.46 1855.62 1516.85 1856.26 1522.13C1856.92 1527.6 1861.47 1531.19 1861.47 1531.19L1868.57 1527.3L1871.47 1516.13L1874.14 1516.9L1876.92 1501.15L1869.39 1497.17L1869.39 1497.03Z" fill="#5A4463" />
<path d="M1871.91 1498.03L1868.26 1496.57C1868.26 1496.57 1865.83 1503.76 1872.74 1511.25C1872.74 1511.25 1867.03 1516.94 1868.57 1527.3L1872.78 1525.74L1891.87 1518.66C1891.87 1518.66 1887.72 1504.78 1871.91 1498.03Z" fill="#655973" />
<path d="M1852.58 1532.08C1848.68 1532.13 1844.92 1531.19 1844.92 1531.19C1849.88 1541.76 1865.96 1542.28 1865.96 1542.28L1857.53 1534.04L1852.58 1532.08Z" fill="#655973" />
<path d="M1852.58 1532.08C1852.58 1532.08 1864.48 1549.41 1888.16 1544.16L1891.69 1518.15C1877.56 1514.07 1867.89 1532.14 1852.58 1532.08Z" fill="#BDBDCA" />
<path opacity="0.6" d="M1892.41 1537.75C1892.41 1537.75 1894.28 1537.31 1894.93 1535.48C1895.56 1533.68 1894.39 1532.14 1894.39 1532.14L1892.41 1537.75Z" fill="#8A622D" />
<path opacity="0.6" d="M1890.1 1535.37C1890.1 1535.37 1891.07 1535.14 1891.41 1534.19C1891.74 1533.26 1891.13 1532.47 1891.13 1532.47L1890.1 1535.37Z" fill="#8A622D" />
<path d="M1897.59 1507.83C1894.48 1511.38 1895.56 1514.26 1891.68 1518.16C1891.54 1518.27 1886 1522.59 1884.87 1530.86C1883.84 1538.37 1888.16 1544.16 1888.16 1544.16C1911.3 1538.56 1903.3 1520.77 1907.69 1516.38L1910.14 1512.21C1910.03 1502.47 1900.51 1504.51 1897.59 1507.83Z" fill="#A87EDC" />
<path d="M1897.59 1507.83C1894.48 1511.38 1895.55 1514.26 1891.68 1518.16C1891.61 1518.21 1891.08 1522.57 1895.47 1526.5C1899.62 1530.23 1905 1529.62 1905 1529.62C1906.77 1523.95 1905.35 1518.72 1907.69 1516.38L1909.98 1514.68L1910.14 1512.21C1910.03 1502.47 1900.51 1504.51 1897.59 1507.83Z" fill="#00709F" />
<path d="M1909.46 1509.89C1907.29 1510.69 1908.52 1515.47 1908.52 1515.47L1911.59 1511.2C1911.59 1511.2 1910.96 1509.33 1909.46 1509.89Z" fill="#BDBDCA" />
<path d="M1911.59 1511.2L1908.52 1515.47C1910.16 1515.04 1911.43 1514.79 1912.42 1514.64C1915.07 1514.26 1915.65 1514.66 1915.65 1514.66C1915.45 1513.65 1914.95 1512.94 1914.37 1512.43C1913.16 1511.37 1911.59 1511.2 1911.59 1511.2Z" fill="#655973" />
<path d="M1901.92 1509.22C1900.95 1510.19 1900.95 1511.77 1901.92 1512.74C1902.89 1513.71 1904.47 1513.7 1905.43 1512.73C1906.4 1511.76 1906.4 1510.19 1905.43 1509.22C1904.46 1508.25 1902.89 1508.25 1901.92 1509.22Z" fill="white" />
<path d="M1903.47 1509.6C1903.66 1509.81 1903.72 1510.12 1903.61 1510.41C1903.45 1510.81 1902.99 1511.01 1902.59 1510.85C1902.48 1510.8 1902.39 1510.74 1902.32 1510.66C1902.21 1511.11 1902.33 1511.61 1902.69 1511.97C1903.23 1512.51 1904.12 1512.51 1904.66 1511.96C1905.21 1511.42 1905.21 1510.53 1904.66 1509.99C1904.34 1509.66 1903.89 1509.54 1903.47 1509.6Z" fill="#010105" />
<path d="M2197.84 1415.5L2198.21 1413.93L2197.27 1413.78C2196.92 1415.06 2196.64 1415.5 2196.64 1415.5C2196.64 1415.5 2193.08 1414.18 2191.41 1416.35H2200.5C2199.7 1414.68 2197.84 1415.5 2197.84 1415.5Z" fill="#F08485" />
<path d="M2194.3 1408.57C2197.86 1411.34 2196.78 1414.48 2196.78 1414.48C2196.78 1414.48 2197.17 1414.57 2197.33 1414.14C2197.33 1414.14 2197.37 1414.54 2197.58 1414.54C2197.81 1414.53 2197.93 1414.06 2197.93 1414.06C2197.93 1414.06 2198.07 1414.41 2198.27 1414.48C2198.27 1414.48 2199.77 1411.71 2198.8 1408.15L2194.3 1408.57Z" fill="#BDBDCA" />
<path d="M2208.64 1407.69C2219.34 1412.57 2228.57 1408.13 2228.57 1408.13L2220.67 1402.79L2208.64 1407.69Z" fill="#BDBDCA" />
<path d="M2199.91 1379.5C2199.14 1377.15 2197.16 1375.46 2193.88 1375.85C2188.75 1376.46 2191.2 1383.14 2191.2 1383.14C2192.21 1391.02 2182.09 1394.13 2186.29 1402.48C2191.86 1413.57 2210.29 1408.38 2210.44 1407.95L2204.24 1391.02C2200.74 1388.28 2201.07 1383.04 2199.91 1379.5Z" fill="#BDBDCA" />
<path d="M2199.91 1379.5C2199.14 1377.15 2197.16 1375.46 2193.88 1375.85C2188.75 1376.46 2191.2 1383.14 2191.2 1383.14C2192.13 1390.4 2183.62 1393.61 2185.55 1400.59C2185.55 1400.59 2187.88 1394.49 2197.46 1394.07L2204.75 1392.42L2204.24 1391.02C2200.74 1388.28 2201.07 1383.04 2199.91 1379.5Z" fill="#00709F" />
<path d="M2199.81 1392.56C2194.59 1394.35 2199.08 1392.14 2197.14 1392.76C2190.91 1394.75 2187.96 1392.02 2187.96 1392.02C2186.73 1393.81 2185.53 1395.59 2185.31 1397.69C2185.16 1399.05 2185.33 1400.36 2186.03 1401.95C2186.03 1401.95 2191.32 1402.74 2196.71 1396.12L2204.23 1395.77C2202.96 1394.78 2200.33 1394 2199.81 1392.56Z" fill="#A87EDC" />
<path d="M2193.06 1393.61C2190.62 1396.69 2191.11 1404.93 2200.75 1407.91C2211.64 1411.27 2221.69 1403.52 2221.69 1403.52L2204.08 1390.91C2204.08 1390.91 2197.79 1387.62 2193.06 1393.61Z" fill="#655973" />
<path d="M2203.89 1415.45L2204.26 1413.88L2203.32 1413.73C2202.97 1415.01 2202.69 1415.45 2202.69 1415.45C2202.69 1415.45 2199.13 1414.13 2197.46 1416.3H2206.55C2205.75 1414.63 2203.89 1415.45 2203.89 1415.45Z" fill="#F08485" />
<path d="M2200.36 1409.4C2203.91 1411.76 2202.83 1414.44 2202.83 1414.44C2202.83 1414.44 2203.22 1414.52 2203.38 1414.15C2203.38 1414.15 2203.42 1414.49 2203.63 1414.49C2203.86 1414.48 2203.98 1414.08 2203.98 1414.08C2203.98 1414.08 2204.12 1414.38 2204.32 1414.44C2204.32 1414.44 2205.82 1412.08 2204.85 1409.04L2200.36 1409.4Z" fill="#BDBDCA" />
<path d="M2190.58 1379.36C2189.58 1378.99 2189.15 1380.24 2189.15 1380.24L2191.2 1383.09C2191.2 1383.09 2192.03 1379.89 2190.58 1379.36Z" fill="#BDBDCA" />
<path d="M2187.29 1381.06C2186.9 1381.4 2186.57 1381.88 2186.44 1382.55C2186.44 1382.55 2186.83 1382.28 2188.6 1382.54C2189.26 1382.64 2190.11 1382.81 2191.2 1383.09L2189.15 1380.24C2189.15 1380.24 2188.1 1380.35 2187.29 1381.06Z" fill="#5A4463" />
<g opacity="0.6"><path d="M2197.43 1396.03C2196.2 1397.72 2196.93 1399.72 2196.93 1399.72L2200.8 1394.43C2200.8 1394.43 2198.69 1394.3 2197.43 1396.03Z" fill="#303032" />
<path d="M2200.46 1398.1C2199.82 1398.98 2200.2 1400.01 2200.2 1400.01L2202.2 1397.27C2202.2 1397.27 2201.11 1397.21 2200.46 1398.1Z" fill="#303032" />
</g><path d="M2193.25 1378.62C2192.6 1379.27 2192.6 1380.32 2193.25 1380.97C2193.89 1381.62 2194.95 1381.62 2195.59 1380.97C2196.24 1380.32 2196.25 1379.27 2195.6 1378.62C2194.95 1377.97 2193.9 1377.97 2193.25 1378.62Z" fill="white" />
<path d="M2194.32 1379.07C2194.43 1379.34 2194.31 1379.64 2194.04 1379.76C2193.85 1379.84 2193.64 1379.8 2193.5 1379.67C2193.46 1379.96 2193.55 1380.25 2193.77 1380.47C2194.14 1380.83 2194.74 1380.81 2195.09 1380.44C2195.45 1380.07 2195.44 1379.48 2195.07 1379.12C2194.83 1378.89 2194.49 1378.81 2194.19 1378.89C2194.24 1378.94 2194.29 1379 2194.32 1379.07Z" fill="#010105" />
<path d="M1930.46 1403.95H1907.11C1905.4 1403.95 1904.02 1405.33 1904.02 1407.04V1412.67C1904.02 1414.37 1905.4 1415.76 1907.11 1415.76H1930.46C1932.17 1415.76 1933.55 1414.37 1933.55 1412.67V1407.04C1933.55 1405.33 1932.17 1403.95 1930.46 1403.95Z" fill="#009C8E" />
<path d="M1930.46 1539.25H1907.11C1905.4 1539.25 1904.02 1540.63 1904.02 1542.34V1547.96C1904.02 1549.67 1905.4 1551.05 1907.11 1551.05H1930.46C1932.17 1551.05 1933.55 1549.67 1933.55 1547.96V1542.34C1933.55 1540.63 1932.17 1539.25 1930.46 1539.25Z" fill="#009C8E" />
<path d="M1855.44 1469.59V1463.97C1855.44 1462.26 1854.06 1460.88 1852.35 1460.88H1836.28V1472.68H1852.35C1854.06 1472.68 1855.44 1471.3 1855.44 1469.59Z" fill="#009C8E" />
<path d="M1906.73 1387.75H1883.38C1881.67 1387.75 1880.29 1389.13 1880.29 1390.84V1396.46C1880.29 1398.17 1881.67 1399.55 1883.38 1399.55H1906.73C1908.43 1399.55 1909.82 1398.17 1909.82 1396.46V1390.84C1909.82 1389.13 1908.43 1387.75 1906.73 1387.75Z" fill="#009C8E" />
<path d="M1848.75 1575.14C1845.27 1571.6 1841.08 1569.56 1836.28 1569.03V1577.17C1838.85 1577.63 1841.06 1578.82 1842.99 1580.79C1845.65 1583.5 1846.94 1586.66 1846.94 1590.47V1638.1C1849.35 1640.04 1852.06 1641.6 1855.01 1642.69V1590.47C1855.01 1584.53 1852.91 1579.37 1848.75 1575.14Z" fill="#5A4463" />
<path d="M1860.62 1587.1C1860.09 1587.04 1859.55 1587 1858.99 1587L1858.59 1587C1855.48 1587.1 1852.67 1588.34 1850.46 1590.59C1848.17 1592.93 1846.95 1595.9 1846.95 1599.18C1846.95 1602.47 1848.17 1605.44 1850.46 1607.77C1852.67 1610.02 1855.48 1611.26 1858.71 1611.37H1858.99C1859.55 1611.37 1860.09 1611.33 1860.61 1611.26C1863.26 1610.92 1865.59 1609.74 1867.53 1607.77C1869.82 1605.43 1871.03 1602.47 1871.03 1599.18C1871.03 1595.9 1869.82 1592.93 1867.53 1590.59C1865.59 1588.62 1863.26 1587.45 1860.62 1587.1ZM1861.77 1602.12C1861.11 1602.79 1860.41 1603.15 1859.57 1603.26C1859.38 1603.29 1859.19 1603.3 1858.99 1603.3L1858.84 1603.3C1857.79 1603.27 1856.98 1602.9 1856.21 1602.12C1855.39 1601.28 1855.02 1600.37 1855.02 1599.18C1855.02 1597.99 1855.39 1597.09 1856.21 1596.25C1856.98 1595.46 1857.79 1595.1 1858.71 1595.07H1858.99C1859.19 1595.07 1859.38 1595.08 1859.58 1595.1C1860.41 1595.21 1861.11 1595.58 1861.77 1596.25C1862.59 1597.08 1862.96 1597.99 1862.96 1599.18C1862.96 1600.37 1862.59 1601.28 1861.77 1602.12Z" fill="#5A4463" />
<path d="M1899.27 1575.14C1895.19 1570.98 1890.14 1568.87 1884.25 1568.87C1878.39 1568.87 1873.3 1570.97 1869.06 1575.18C1865.02 1579.41 1862.97 1584.55 1862.97 1590.47V1644.37C1863.61 1644.42 1864.26 1644.45 1864.91 1644.45H1871.04V1590.47C1871.04 1586.64 1872.3 1583.46 1874.81 1580.83C1877.45 1578.21 1880.54 1576.94 1884.25 1576.94C1887.94 1576.94 1890.97 1578.2 1893.52 1580.79C1896.17 1583.5 1897.47 1586.67 1897.47 1590.47V1644.45H1905.53V1590.47C1905.53 1584.53 1903.43 1579.37 1899.27 1575.14Z" fill="#5A4463" />
<path d="M1911.14 1587.1C1910.61 1587.04 1910.07 1587 1909.51 1587L1909.11 1587C1906 1587.1 1903.19 1588.34 1900.98 1590.59C1898.69 1592.93 1897.47 1595.9 1897.47 1599.18C1897.47 1602.47 1898.69 1605.44 1900.98 1607.77C1903.19 1610.02 1906 1611.26 1909.23 1611.37H1909.51C1910.07 1611.37 1910.61 1611.33 1911.13 1611.26C1913.78 1610.92 1916.11 1609.74 1918.05 1607.77C1920.34 1605.43 1921.55 1602.47 1921.55 1599.18C1921.55 1595.9 1920.34 1592.93 1918.05 1590.59C1916.11 1588.62 1913.78 1587.45 1911.14 1587.1ZM1912.29 1602.12C1911.63 1602.79 1910.93 1603.15 1910.09 1603.26C1909.9 1603.29 1909.71 1603.3 1909.51 1603.3L1909.36 1603.3C1908.32 1603.27 1907.5 1602.9 1906.73 1602.12C1905.91 1601.28 1905.54 1600.37 1905.54 1599.18C1905.54 1597.99 1905.91 1597.09 1906.73 1596.25C1907.5 1595.46 1908.31 1595.1 1909.23 1595.07H1909.51C1909.71 1595.07 1909.9 1595.08 1910.1 1595.1C1910.93 1595.21 1911.63 1595.58 1912.29 1596.25C1913.11 1597.08 1913.48 1597.99 1913.48 1599.18C1913.48 1600.37 1913.11 1601.28 1912.29 1602.12Z" fill="#5A4463" />
<path d="M1949.94 1575.14C1945.85 1570.98 1940.8 1568.87 1934.92 1568.87C1929.05 1568.87 1923.97 1570.97 1919.72 1575.18C1915.68 1579.41 1913.64 1584.55 1913.64 1590.47V1644.45H1921.71V1590.47C1921.71 1586.64 1922.96 1583.46 1925.48 1580.83C1928.12 1578.21 1931.21 1576.94 1934.92 1576.94C1938.61 1576.94 1941.64 1578.2 1944.18 1580.79C1946.84 1583.5 1948.13 1586.67 1948.13 1590.47V1644.45H1956.2V1590.47C1956.2 1584.53 1954.09 1579.37 1949.94 1575.14Z" fill="#5A4463" />
<path d="M2188.86 1615.47C2196.01 1615.47 2201.81 1613.75 2201.81 1611.64C2201.81 1609.52 2196.01 1607.81 2188.86 1607.81C2181.71 1607.81 2175.91 1609.52 2175.91 1611.64C2175.91 1613.75 2181.71 1615.47 2188.86 1615.47Z" fill="#7B6E90" />
<path d="M2287.44 1616.91C2247.22 1620.84 2217.42 1631.54 2213.49 1644.45H2258.83C2274.28 1644.45 2286.86 1632.21 2287.44 1616.91Z" fill="#7B6E90" />
<path d="M2229.55 1562.75C2217.28 1557.82 2206.34 1562.14 2206.34 1567.89C2206.34 1573.64 2252.75 1573.64 2252.75 1567.89C2252.75 1562.14 2241.33 1557.82 2229.55 1562.75Z" fill="#115AC2" />
<path d="M2272.89 1545.82C2272.59 1545.49 2272.18 1545.3 2271.75 1545.29C2267.2 1545.11 2262.64 1545.13 2258.2 1545.34C2257.97 1545.36 2257.75 1545.42 2257.53 1545.52C2257.32 1545.63 2257.13 1545.78 2256.97 1545.96C2256.81 1546.15 2256.68 1546.37 2256.59 1546.6C2256.51 1546.84 2256.47 1547.09 2256.47 1547.34L2256.5 1553.08C2256.51 1553.55 2256.68 1553.99 2256.97 1554.33C2257.27 1554.66 2257.68 1554.85 2258.11 1554.86C2260.5 1554.95 2262.85 1554.99 2265.16 1554.98C2267.38 1554.97 2269.55 1554.91 2271.66 1554.81C2271.89 1554.8 2272.12 1554.74 2272.33 1554.63C2272.54 1554.52 2272.73 1554.37 2272.89 1554.19C2273.06 1554 2273.18 1553.78 2273.27 1553.55C2273.35 1553.31 2273.4 1553.06 2273.39 1552.81L2273.36 1547.07C2273.35 1546.6 2273.18 1546.16 2272.89 1545.82Z" fill="#3F7DF0" />
<path d="M2255.47 1550.35C2256.48 1556.41 2257.05 1562.82 2258.53 1569.16C2262.79 1569.48 2267.07 1569.48 2271.33 1569.16C2272.78 1562.72 2273.38 1556.41 2274.4 1550.35C2268.1 1549.65 2261.76 1549.65 2255.47 1550.35Z" fill="#3F7DF0" />
<path d="M2274.41 1548.82C2268.1 1548.22 2261.76 1548.22 2255.45 1548.82C2254.62 1548.9 2254.01 1549.63 2254.1 1550.44C2254.2 1551.24 2254.92 1551.82 2255.73 1551.74C2261.85 1551.16 2268.01 1551.16 2274.13 1551.74C2274.94 1551.82 2275.66 1551.24 2275.76 1550.44C2275.85 1549.63 2275.25 1548.9 2274.41 1548.82Z" fill="#115AC2" />
<path d="M2265.91 1559.33C2265.91 1559.33 2265.57 1556.21 2264.69 1556.39C2263.82 1556.58 2263.53 1559.16 2263.53 1559.16C2263.53 1559.16 2261.29 1556.67 2260.55 1557.43C2259.8 1558.19 2261.66 1563.76 2265.06 1563.65C2268.46 1563.54 2269.92 1557.96 2269.36 1557.31C2268.8 1556.67 2265.91 1559.33 2265.91 1559.33Z" fill="#CBDEFF" />
<path d="M2262.13 1543.61H2259.84C2259.09 1543.61 2258.49 1544.22 2258.49 1544.96V1545.88C2258.49 1546.63 2259.09 1547.24 2259.84 1547.24H2262.13C2262.88 1547.24 2263.48 1546.63 2263.48 1545.88V1544.96C2263.48 1544.22 2262.88 1543.61 2262.13 1543.61Z" fill="#3F7DF0" />
<path d="M2058.29 1369.61H2048.63V1384.46H2058.29V1369.61Z" fill="#D9F5FF" />
<path d="M2072.07 1369.65H2062.42V1384.5H2072.07V1369.65Z" fill="#D9F5FF" />
<path d="M2086.35 1398.83H2076.69V1413.68H2086.35V1398.83Z" fill="#D9F5FF" />
<path d="M1970.44 1454.31H1960.79V1469.16H1970.44V1454.31Z" fill="#D9F5FF" />
<path d="M2273.05 1577.04C2271.62 1577.04 2270.46 1578.2 2270.46 1579.64V1584.36C2270.46 1585.8 2271.62 1586.96 2273.05 1586.96H2287.47V1577.04H2273.05Z" fill="#B7D0FA" />
<path d="M1916.09 1370.44V1347.35H1864.91C1859.33 1347.35 1854.13 1348.95 1849.73 1351.71V1370.44H1916.09Z" fill="#77CFF3" />
<path d="M1918.43 1347.35H1910.34L1918.43 1356.91V1347.35Z" fill="white" />
<path d="M1909.82 1370.44L1892.53 1347.35H1877.73L1894.23 1369.61L1909.82 1370.44Z" fill="white" />
<path d="M1918.79 1373.12V1347.35H1913.43V1367.76H1852.43V1350.21C1850.52 1351.14 1848.72 1352.28 1847.08 1353.59V1373.12H1918.79Z" fill="#2C6D71" />
<path d="M2004.31 1436.9H2002.17V1434.77C2002.17 1434.57 2002.01 1434.41 2001.81 1434.41C2001.62 1434.41 2001.46 1434.57 2001.46 1434.77V1436.9H1999.32C1999.12 1436.9 1998.96 1437.06 1998.96 1437.26C1998.96 1437.45 1999.12 1437.61 1999.32 1437.61H2001.46V1445.6H2002.17V1437.61H2004.31C2004.51 1437.61 2004.67 1437.45 2004.67 1437.26C2004.67 1437.06 2004.51 1436.9 2004.31 1436.9Z" fill="#D9F5FF" />
<path d="M2002.17 1443.69H2001.46C2000.23 1446.22 1996.61 1448.04 1996.61 1450.54C1996.61 1453.08 1998.94 1455.14 2001.81 1455.14C2004.69 1455.14 2007.02 1453.08 2007.02 1450.54C2007.02 1448.04 2003.4 1446.22 2002.17 1443.69Z" fill="#D9F5FF" />
<path d="M2012.3 1489.95L2004.67 1462.59H1998.96L1991.33 1489.95H2012.3Z" fill="#D9F5FF" />
<path d="M2004.83 1454.3H1998.81V1463.19H2004.83V1454.3Z" fill="#D9F5FF" />
</svg>