<svg xmlns="http://www.w3.org/2000/svg" width="188.71" height="372.31" viewBox="533.82 120.28 188.71 372.31" fill="none"><path d="M603.043 314.782C600.338 334.098 599.081 352.895 601.008 370.553C601.818 377.97 601.909 385.463 600.798 392.84C597.965 411.633 604.04 425.897 601.78 449.66L617.968 451.582C617.968 451.582 624.108 414.432 624.177 398.922C624.212 390.897 624.892 382.885 626.402 375.004C630.034 356.051 630.612 338.339 629.497 321.315L603.043 314.782Z" fill="#F2CAC9" />
<path d="M601.247 421.143C602.071 429.531 602.837 438.554 601.78 449.66L617.968 451.582C617.968 451.582 620.316 437.371 622.125 422.859C615.62 424.053 606.519 423.726 601.247 421.143Z" fill="#FFF6E0" />
<path d="M572.552 457.786L573.318 464.341C583.968 472.592 610.077 469.987 622.873 459.738L622.481 453.185L572.552 457.786Z" fill="#FFF6E0" />
<path d="M606.404 444.054L615.382 450.787L596.061 457.52L596.549 448.933L606.404 444.054Z" fill="#9D75EA" />
<path d="M619.281 443.291C620.891 446.171 621.969 449.556 622.481 453.185C609.299 465.85 581.839 466.637 572.552 457.786C573.788 445.806 594.301 453.542 599.282 438.842C599.282 438.842 607.319 438.506 608.433 441.476C609.546 444.445 602.729 450.649 602.729 450.649C612.619 449.538 619.281 443.291 619.281 443.291Z" fill="#8F5CE0" />
<path d="M653.314 314.782C656.019 334.098 657.276 352.895 655.348 370.553C654.539 377.97 654.447 385.463 655.559 392.84C658.391 411.633 652.316 425.897 654.576 449.66L638.388 451.582C638.388 451.582 632.248 414.432 632.18 398.922C632.144 390.897 631.464 382.885 629.954 375.004C626.322 356.051 625.744 338.339 626.86 321.315L653.314 314.782Z" fill="#F2CAC9" />
<path d="M655.11 421.143C654.285 429.531 653.52 438.554 654.576 449.66L638.388 451.582C638.388 451.582 636.04 437.371 634.232 422.859C640.736 424.053 649.838 423.726 655.11 421.143Z" fill="#FFF6E0" />
<path d="M683.804 457.786L683.038 464.341C672.388 472.592 646.279 469.987 633.483 459.738L633.876 453.185L683.804 457.786Z" fill="#FFF6E0" />
<path d="M649.952 444.054L640.975 450.787L660.295 457.52L659.807 448.933L649.952 444.054Z" fill="#9D75EA" />
<path d="M637.075 443.291C635.465 446.171 634.387 449.556 633.875 453.185C647.057 465.85 674.517 466.637 683.804 457.786C682.568 445.806 662.055 453.542 657.073 438.842C657.073 438.842 649.037 438.506 647.923 441.476C646.81 444.445 653.627 450.649 653.627 450.649C643.737 449.538 637.075 443.291 637.075 443.291Z" fill="#8F5CE0" />
<path d="M668.977 178.46H587.378C586.579 210.5 585.66 239.946 571.809 248.988C571.809 248.988 587.836 254.931 593.331 241.217C593.331 241.217 590.126 266.13 628.177 266.13C666.229 266.13 663.024 241.217 663.024 241.217C668.519 254.931 684.546 248.988 684.546 248.988C670.695 239.946 669.777 210.5 668.977 178.46Z" fill="#E8AE69" />
<path d="M671.396 369.886C669.211 339.365 656.098 309.38 656.098 309.38L628.178 302.368L600.239 309.38C600.239 309.38 586.607 341.72 584.96 369.886C609.347 381.116 644.374 381.279 671.396 369.886Z" fill="#1F1C4C" />
<g opacity="0.5"><path d="M600.384 312.411H599.025C598.064 314.88 596.62 318.74 595.012 323.528H600.384V312.411Z" fill="#121238" />
<path d="M622.619 312.411H611.502V323.528H622.619V312.411Z" fill="#121238" />
<path d="M644.854 312.411H633.737V323.528H644.854V312.411Z" fill="#121238" />
<path d="M655.972 323.528H661.411C659.788 318.706 658.324 314.863 657.348 312.411H655.972V323.528Z" fill="#121238" />
</g><g opacity="0.5"><path d="M611.502 323.528H600.384V334.646H611.502V323.528Z" fill="#121238" />
<path d="M633.737 323.528H622.619V334.646H633.737V323.528Z" fill="#121238" />
<path d="M655.972 323.528H644.854V334.646H655.972V323.528Z" fill="#121238" />
</g><g opacity="0.5"><path d="M600.384 345.763V334.646H591.554C590.767 337.394 589.993 340.27 589.267 343.239V345.763H600.384Z" fill="#121238" />
<path d="M622.619 334.646H611.502V345.763H622.619V334.646Z" fill="#121238" />
<path d="M644.854 334.646H633.737V345.763H644.854V334.646Z" fill="#121238" />
<path d="M655.972 345.763H667.089V343.212C666.376 340.234 665.622 337.365 664.853 334.646H655.972V345.763Z" fill="#121238" />
</g><g opacity="0.5"><path d="M589.267 345.763H588.667C587.828 349.391 587.072 353.123 586.455 356.881H589.267V345.763Z" fill="#121238" />
<path d="M611.502 345.763H600.384V356.881H611.502V345.763Z" fill="#121238" />
<path d="M633.737 345.763H622.619V356.881H633.737V345.763Z" fill="#121238" />
<path d="M655.972 345.763H644.854V356.881H655.972V345.763Z" fill="#121238" />
<path d="M667.089 345.763V356.881H669.848C669.231 353.076 668.494 349.351 667.683 345.763H667.089Z" fill="#121238" />
</g><g opacity="0.5"><path d="M600.384 356.881H589.267V367.999H600.384V356.881Z" fill="#121238" />
<path d="M622.619 356.881H611.502V367.999H622.619V356.881Z" fill="#121238" />
<path d="M644.854 356.881H633.737V367.999H644.854V356.881Z" fill="#121238" />
<path d="M667.089 356.881H655.972V367.999H667.089V356.881Z" fill="#121238" />
</g><g opacity="0.5"><path d="M585.094 367.999C585.046 368.629 584.996 369.26 584.96 369.886C586.36 370.531 587.8 371.135 589.267 371.707V367.999H585.094Z" fill="#121238" />
<path d="M600.384 367.998V375.203C603.987 376.092 607.706 376.793 611.502 377.308V367.998H600.384Z" fill="#121238" />
<path d="M633.737 378.197V367.998H622.619V378.27C626.303 378.414 630.02 378.39 633.737 378.197Z" fill="#121238" />
<path d="M655.972 367.998H644.854V377.11C648.608 376.568 652.326 375.849 655.972 374.953V367.998Z" fill="#121238" />
<path d="M671.24 367.998H667.089V371.571C668.543 371.038 669.983 370.482 671.396 369.886C671.351 369.256 671.294 368.628 671.24 367.998Z" fill="#121238" />
</g><path d="M656.097 309.38L628.178 302.368L600.239 309.38C600.239 309.38 598.479 313.562 596.15 320.208C616.286 326.971 637.658 326.968 660.266 320.208C657.894 313.491 656.097 309.38 656.097 309.38Z" fill="#121238" />
<path d="M564.583 335.566C560.612 341.006 559.46 344.97 558.906 346.815C557.921 350.101 559.406 351.393 560.758 356.487C561.563 359.496 565.762 357.71 564.55 348.555C566.2 345.191 569.258 342.353 571.245 342.342C571.604 342.298 571.964 342.307 572.314 342.378L571.993 336.548L564.583 335.566Z" fill="#EBB0B4" />
<path d="M574.388 327.58C561.25 334.567 556.891 340.417 555.302 342.986C553.824 345.374 554.739 347.959 554.485 353.64C554.249 358.825 559.752 357.67 559.791 346.636C561.941 344.224 566.329 341.123 569.001 342.444C570.953 343.413 570.325 346.582 567.801 348.276C564.41 350.542 566.067 356.01 568.703 355.074C570.64 354.394 568.632 352.298 575.137 349.704C579.862 347.829 582.62 340.836 581.912 333.932L574.388 327.58Z" fill="#F0C3C1" />
<path d="M599.458 248.202C593.859 258.549 590.096 268.623 587.839 280.3C586.92 285.055 585.188 289.596 582.838 293.831C578.329 301.959 574.159 324.01 569.952 330.039C570.262 332.563 581.352 334.986 581.352 334.986C596.31 308.059 608.873 281.724 618.863 256.023L610.146 246.347L599.458 248.202Z" fill="#F0C3C1" />
<path d="M605.124 244.631C589.254 250.341 583.401 270.628 583.401 270.628C589.966 277.31 596.776 279.069 606.578 278.656L605.124 244.631Z" fill="#3C42A6" />
<path d="M691.774 335.566C695.745 341.006 696.897 344.97 697.45 346.815C698.435 350.101 696.95 351.393 695.599 356.487C694.793 359.496 690.595 357.71 691.806 348.555C690.157 345.191 687.099 342.353 685.111 342.342C684.753 342.298 684.393 342.307 684.042 342.378L684.363 336.548L691.774 335.566Z" fill="#EBB0B4" />
<path d="M681.968 327.58C695.106 334.567 699.465 340.417 701.054 342.986C702.532 345.374 701.617 347.959 701.871 353.64C702.107 358.825 696.604 357.67 696.565 346.636C694.415 344.224 690.027 341.123 687.355 342.444C685.403 343.413 686.03 346.582 688.554 348.276C691.946 350.542 690.289 356.01 687.652 355.074C685.716 354.394 687.723 352.298 681.219 349.704C676.494 347.829 673.736 340.836 674.443 333.932L681.968 327.58Z" fill="#F0C3C1" />
<path d="M656.898 248.202C662.497 258.549 666.261 268.623 668.517 280.3C669.437 285.055 671.168 289.596 673.518 293.831C678.027 301.959 682.198 324.01 686.405 330.039C686.094 332.563 675.004 334.986 675.004 334.986C660.047 308.059 647.483 281.724 637.493 256.023L646.211 246.347L656.898 248.202Z" fill="#F0C3C1" />
<path d="M651.232 244.631C667.102 250.341 672.955 270.628 672.955 270.628C666.39 277.31 659.581 279.069 649.778 278.656L651.232 244.631Z" fill="#3C42A6" />
<path d="M651.243 244.631C651.243 244.631 639.174 240.295 628.81 240.005C618.446 240.295 605.124 244.631 605.124 244.631C601.012 287.875 595.288 313.906 595.288 313.906C595.288 313.906 605.029 319.68 628.81 319.68C652.59 319.68 662.332 313.906 662.332 313.906C662.332 313.906 655.354 287.875 651.243 244.631Z" fill="#4C50BA" />
<path d="M628.178 256.415C635.619 256.415 641.651 250.383 641.651 242.942C641.651 242.575 641.625 242.215 641.596 241.856C637.694 240.942 633.107 240.125 628.81 240.005C624.232 240.133 619.08 241.051 614.751 242.035C614.731 242.336 614.705 242.636 614.705 242.942C614.705 250.383 620.737 256.415 628.178 256.415Z" fill="#3C42A6" />
<path d="M619.672 227.737H636.684V243.002C636.684 247.697 632.873 251.508 628.178 251.508C623.483 251.508 619.672 247.697 619.672 243.002V227.737Z" fill="#EBB0B4" />
<path d="M590.369 212.875C596.787 217.315 601.678 213.461 601.678 213.461L599.827 197.969C599.827 197.969 593.648 190.866 588.414 193.802C583.18 196.738 582.011 207.094 590.369 212.875Z" fill="#EDBBBD" />
<path d="M665.985 212.875C659.568 217.315 654.676 213.461 654.676 213.461L656.527 197.969C656.527 197.969 662.707 190.866 667.941 193.802C673.175 196.738 674.344 207.094 665.985 212.875Z" fill="#EDBBBD" />
<path d="M658.478 164.414C637.629 145.709 617.326 145.916 597.547 164.414C596.052 182.914 592.864 210.268 600.264 222.386C607.664 234.504 620.94 237.645 628.012 237.645C635.085 237.645 648.361 234.504 655.761 222.386C663.161 210.268 659.973 182.915 658.478 164.414Z" fill="#F2CAC9" />
<path d="M603.728 191.911C603.552 192.202 603.4 192.513 603.297 192.838C602.901 193.075 602.458 193.214 602.006 193.24C601.552 193.267 601.089 193.181 600.676 192.99C600.715 193.607 600.974 194.187 601.419 194.619C601.852 195.048 602.435 195.299 603.047 195.318C603.15 196.395 603.549 197.424 604.195 198.289C604.841 199.137 605.698 199.799 606.682 200.206L616.952 191.215C614.971 188.305 607.135 186.544 603.728 191.911Z" fill="#06132B" />
<path d="M610.742 189.512C605.556 190.178 602.552 194.891 606.009 199.514C606.009 199.514 607.571 201.872 612.044 202.162C615.368 202.332 618.651 201.362 621.351 199.415C620.621 191.265 614.824 189.013 610.742 189.512Z" fill="white" />
<path d="M613.07 191.832C612.945 191.832 612.828 191.858 612.707 191.869C613.018 192.251 613.213 192.732 613.213 193.264C613.213 194.489 612.219 195.483 610.994 195.483C610.203 195.483 609.513 195.065 609.12 194.441C608.899 194.959 608.775 195.528 608.775 196.127C608.775 198.499 610.698 200.421 613.07 200.421C615.441 200.421 617.364 198.499 617.364 196.127C617.364 193.755 615.441 191.832 613.07 191.832Z" fill="#4860EC" />
<path d="M652.627 191.911C652.803 192.202 652.955 192.513 653.058 192.838C653.454 193.075 653.897 193.214 654.349 193.24C654.803 193.267 655.266 193.181 655.679 192.99C655.64 193.607 655.381 194.187 654.936 194.619C654.503 195.048 653.92 195.299 653.308 195.318C653.205 196.395 652.806 197.424 652.16 198.289C651.514 199.137 650.657 199.799 649.673 200.206L639.403 191.215C641.384 188.305 649.22 186.544 652.627 191.911Z" fill="#06132B" />
<path d="M645.613 189.512C650.799 190.178 653.803 194.891 650.346 199.514C650.346 199.514 648.784 201.872 644.312 202.162C640.987 202.332 637.704 201.362 635.004 199.415C635.734 191.265 641.531 189.013 645.613 189.512Z" fill="white" />
<path d="M643.285 191.832C643.161 191.832 643.044 191.858 642.922 191.869C643.234 192.251 643.428 192.732 643.428 193.264C643.428 194.489 642.435 195.483 641.209 195.483C640.418 195.483 639.728 195.065 639.335 194.441C639.114 194.959 638.991 195.528 638.991 196.127C638.991 198.499 640.914 200.421 643.285 200.421C645.657 200.421 647.58 198.499 647.58 196.127C647.58 193.755 645.657 191.832 643.285 191.832Z" fill="#4860EC" />
<path d="M628.038 201.142C628.461 202.661 628.853 204.223 629.684 205.167C630.361 205.957 631.362 206.101 632.359 206.536C635.265 207.696 634.608 211.521 632.248 212.806C630.684 213.783 628.758 213.76 627.332 213.034C628.931 212.888 630.328 212.374 631.273 211.489C632.248 210.624 632.544 209.328 632.055 208.755C631.898 208.465 631.268 208.244 630.487 207.878C627.808 206.885 627.321 203.425 628.038 201.142Z" fill="#EDAEB2" />
<path d="M619.211 218.43C626.096 223.195 632.555 222.666 638.591 216.841C632.244 219.139 625.776 219.541 619.211 218.43Z" fill="#E89197" />
<path d="M608.907 183.901C610.843 180.691 615.403 179.549 618.763 181.086C620.055 181.583 621.604 182.935 620.454 184.407C619.971 185.039 619.199 185.102 618.489 185.025C615.559 184.509 612.727 183.929 609.769 184.962C609.143 185.202 608.535 184.456 608.907 183.901Z" fill="#E69F59" />
<path d="M646.586 184.962C644.974 184.527 643.607 184.251 642.015 184.385C640.46 184.478 638.853 185.018 637.326 185.049C636.369 185.091 635.559 184.349 635.517 183.393C635.612 180.827 640.331 180.074 642.312 180.551C644.391 180.88 646.37 182.123 647.448 183.901C647.823 184.464 647.203 185.2 646.586 184.962Z" fill="#E69F59" />
<path d="M668.998 179.244C668.998 160.695 653.07 140.544 628.177 146.123C606.094 140.281 587.356 160.695 587.356 179.244C587.356 197.794 628.177 166.255 628.177 166.255C628.177 166.255 650.388 183.416 662.043 184.975C666.188 185.53 668.998 184.111 668.998 179.244Z" fill="#E8AE69" />
<path d="M634.592 155.514C643.803 161.179 651.558 167.336 658.821 173.317C656.961 161.362 649.186 155.108 634.592 155.514Z" fill="#E69F59" />
<path d="M592.861 210.588L593.288 211.592C593.383 211.814 593.57 211.984 593.8 212.056L594.84 212.384C595.456 212.578 595.621 213.372 595.135 213.796L594.313 214.512C594.13 214.671 594.027 214.901 594.029 215.142L594.038 216.233C594.044 216.878 593.341 217.281 592.787 216.949L591.852 216.388C591.644 216.264 591.393 216.237 591.164 216.314L590.13 216.66C589.518 216.864 588.918 216.32 589.062 215.691L589.306 214.628C589.36 214.392 589.309 214.145 589.165 213.951L588.517 213.075C588.133 212.556 588.465 211.816 589.108 211.759L590.194 211.663C590.435 211.642 590.654 211.516 590.794 211.32L591.428 210.432C591.803 209.907 592.608 209.994 592.861 210.588Z" fill="#8989A3" />
<path d="M663.494 210.588L663.067 211.592C662.972 211.814 662.785 211.984 662.555 212.056L661.515 212.384C660.899 212.578 660.734 213.372 661.22 213.796L662.043 214.512C662.225 214.671 662.328 214.901 662.326 215.142L662.317 216.233C662.311 216.878 663.015 217.281 663.568 216.949L664.504 216.388C664.711 216.264 664.962 216.237 665.191 216.314L666.225 216.66C666.837 216.864 667.437 216.32 667.293 215.691L667.049 214.628C666.995 214.392 667.046 214.145 667.19 213.951L667.838 213.075C668.222 212.556 667.89 211.816 667.247 211.759L666.161 211.663C665.92 211.642 665.701 211.516 665.561 211.32L664.928 210.432C664.553 209.907 663.747 209.994 663.494 210.588Z" fill="#8989A3" />
<path d="M636.604 275.881C646.502 286.002 638.298 294.206 628.177 284.308C618.057 294.206 609.853 286.002 619.751 275.881C609.853 265.761 618.057 257.557 628.177 267.455C638.298 257.557 646.502 265.761 636.604 275.881Z" fill="#3C42A6" />
<path d="M628.177 280.016C630.461 280.016 632.312 278.165 632.312 275.882C632.312 273.598 630.461 271.747 628.177 271.747C625.894 271.747 624.043 273.598 624.043 275.882C624.043 278.165 625.894 280.016 628.177 280.016Z" fill="#4C50BA" />
</svg>