<svg xmlns="http://www.w3.org/2000/svg" width="195.54" height="175.08" viewBox="2407.82 961.48 195.54 175.08" fill="none"><path d="M2505.59 1007C2526.88 1007 2544.57 1016.44 2558.46 1028.37C2572.39 1040.32 2581.95 1054.32 2586.68 1062.16C2587.36 1063.3 2587.36 1064.56 2586.73 1065.66C2582.24 1073.49 2573.11 1087.41 2559.36 1099.28C2545.69 1111.09 2527.84 1120.56 2505.59 1120.56C2483.34 1120.56 2465.5 1111.09 2451.82 1099.28C2438.08 1087.41 2428.94 1073.49 2424.45 1065.66C2423.82 1064.56 2423.82 1063.3 2424.51 1062.16C2429.24 1054.32 2438.8 1040.32 2452.72 1028.37C2466.61 1016.44 2484.3 1007 2505.59 1007Z" fill="#E1E4FF" stroke="#6B78EE" stroke-width="18.5429" />
<circle cx="2505.59" cy="1063.78" r="38.274" fill="#493FBB" />
<circle cx="2505.59" cy="1063.78" r="21.0021" fill="#493FBB" />
<path d="M2439.04 1000.63L2453.45 1020.22" stroke="#6B78EE" stroke-width="18.5429" stroke-linecap="round" />
<path d="M2569.98 1000.63L2555.57 1020.22" stroke="#6B78EE" stroke-width="18.5429" stroke-linecap="round" />
<path d="M2503.5 977.483L2503.93 1000.63" stroke="#6B78EE" stroke-width="18.5429" stroke-linecap="round" />
</svg>