<svg width="72" height="54" viewBox="0 0 72 54" fill="none" xmlns="http://www.w3.org/2000/svg">
<path fill-rule="evenodd" clip-rule="evenodd" d="M18.1374 13.0869L11.5719 18.5721L17.7487 22.2384L12.2119 26.8626L18.3812 30.5259L12.8322 35.1063L20.1478 39.5076L19.5429 31.2157L19.5524 31.2212L18.8996 22.9216L18.913 22.9295L18.1374 13.0869Z" fill="#0D1013"/>
<path d="M19.6062 38.9219C19.703 40.3602 20.9163 41.4666 22.3574 41.4306L42.7809 40.92L49.9644 48L51.1089 40.4845L54.1292 40.2755C55.4504 40.1841 56.5082 39.1483 56.6219 37.8288C57.1312 31.9147 58.0054 21.6136 58.4183 16.7417C58.5447 15.2503 57.4286 13.9507 55.9359 13.8402L20.8192 11.2409C19.1876 11.1201 17.8269 12.4717 17.9367 14.1042L19.6062 38.9219Z" fill="#FF6170"/>
<path d="M44.5667 33.333C44.4855 34.283 45.1895 35.1057 46.222 35.1965C47.2546 35.2872 48.0875 34.5996 48.1686 33.6496L48.8447 25.7328C48.9259 24.7828 48.222 23.9601 47.1894 23.8693C46.1569 23.7786 45.324 24.4662 45.2428 25.4162L44.5667 33.333ZM47.7504 18.1512C46.5257 18.0436 45.4965 18.763 45.3884 20.0297C45.2698 21.4182 46.1355 22.3287 47.3842 22.4385C48.4648 22.5334 49.4981 21.7653 49.6146 20.4012C49.7207 19.1588 48.8309 18.2462 47.7504 18.1512Z" fill="white"/>
<path d="M35.804 24.1987L29.6795 24.7229L29.2682 19.777C29.1851 18.778 28.2756 18.0216 27.1949 18.1141C26.1141 18.2066 25.3424 19.1069 25.4254 20.1058L26.5804 33.9934C26.6635 34.9923 27.573 35.7488 28.6537 35.6563C29.7345 35.5638 30.5062 34.6634 30.4232 33.6645L29.9835 28.3775L36.1079 27.8534L36.5476 33.1404C36.6307 34.1393 37.5402 34.8957 38.621 34.8032C39.7018 34.7107 40.4735 33.8104 40.3904 32.8115L39.2355 18.9239C39.1524 17.925 38.2429 17.1686 37.1621 17.2611C36.0813 17.3536 35.3096 18.2539 35.3927 19.2528L35.804 24.1987Z" fill="white"/>
</svg>
