<svg width="72" height="54" viewBox="0 0 72 54" fill="none" xmlns="http://www.w3.org/2000/svg">
<path fill-rule="evenodd" clip-rule="evenodd" d="M57.3689 38.3319C54.2798 42.3436 43.4249 39.239 33.1235 31.4003C22.8222 23.5608 16.976 13.9543 20.0652 9.94327C23.1525 5.93207 34.0074 9.0355 44.3088 16.8749C54.6101 24.7141 60.4581 34.3209 57.3689 38.3319ZM37.3965 26.075C43.582 30.782 49.4925 33.4335 50.5978 31.9974C51.7031 30.5612 47.5854 25.5813 41.4017 20.8744C35.2163 16.1676 29.3058 13.5158 28.1988 14.9522C27.0934 16.3881 31.2111 21.3681 37.3965 26.075Z" fill="#4E4F75"/>
<path d="M37.3967 26.0735C43.5819 30.7804 49.4924 33.432 50.5983 31.9958C51.7042 30.5597 47.5866 25.5797 41.4015 20.8729C35.2162 16.1659 29.3056 13.5144 28.1997 14.9505C27.0938 16.3866 31.2114 21.3665 37.3967 26.0735Z" fill="#32314C"/>
<path d="M40.5083 28.4471L58.9486 18.862C59.8557 18.3903 60.9753 18.7507 61.4324 19.6613C61.8789 20.548 61.527 21.626 60.6432 22.0852L42.2029 31.6703C41.2957 32.1419 40.1761 31.7816 39.719 30.8711C39.2726 29.9843 39.6244 28.9062 40.5083 28.4471Z" fill="#FF9800"/>
<path d="M38.1054 12.7408C38.8858 12.1328 39.3411 11.4255 39.5447 10.7619C39.7482 10.0983 39.7339 9.36842 39.4376 8.79311C39.1394 8.21779 38.5894 7.6865 37.9394 7.48698C37.1002 7.22995 36.1359 7.38615 35.0824 7.93466C33.9824 8.5066 32.5949 8.47589 31.7521 7.56473C30.8736 6.61168 30.9433 5.09858 32.0396 4.40983C32.8593 3.8954 33.6771 3.51287 34.4842 3.28211C35.9145 2.87383 37.5698 2.8969 39.3036 3.42872C41.0392 3.96072 42.4963 5.0123 43.532 6.66084C44.5677 8.30939 44.7427 10.0572 44.132 12.0476C43.7928 13.1535 43.1284 14.1594 42.2803 14.9886C41.4321 15.8176 40.05 16.8454 38.0555 17.9282L33.0379 20.7456L39.2215 22.6409C40.4179 23.0078 41.0911 24.2708 40.7268 25.4618C40.3607 26.6527 39.0929 27.3207 37.8966 26.9537L27.1809 23.6681C26.0917 23.3342 25.4775 22.1854 25.8114 21.1021C26.122 20.0901 26.8131 19.2377 27.7416 18.7231L34.4449 15.0062C36.1537 14.0779 37.3269 13.3488 38.1054 12.7408Z" fill="#FF6170"/>
<path d="M33.2477 31.5504C43.549 39.3905 54.404 42.4934 57.4931 38.4817C60.5823 34.4709 48.1292 35.0397 37.6564 26.2503C26.6676 18.22 23.2767 6.08235 20.1875 10.0934C17.1002 14.1044 22.9463 23.7111 33.2477 31.5504Z" fill="#4E4F75"/>
<path d="M44.4043 36.7053C44.8573 37.1811 44.7362 37.957 44.1598 38.2722L28.8308 46.6539C25.0143 48.5502 20.4082 46.7522 18.5096 45.8357C18.012 45.5954 17.8558 44.9886 18.1437 44.5169C18.8876 43.298 20.2689 41.0734 21.1739 39.8493C21.2763 39.7107 21.344 39.5507 21.3683 39.3801L23.7428 22.7163C23.8231 22.1531 24.3564 21.7702 24.9157 21.8743L31.1232 23.0291C31.3301 23.0676 31.5196 23.1704 31.6646 23.3228L44.4043 36.7053Z" fill="#4E4F75"/>
</svg>
