<svg width="24" height="24" viewBox="0 0 24 24" fill="none" xmlns="http://www.w3.org/2000/svg">
<path fill-rule="evenodd" clip-rule="evenodd" d="M5 4C3.89543 4 3 4.89543 3 6V18C3 19.1046 3.89543 20 5 20H19C20.1046 20 21 19.1046 21 18V6C21 4.89543 20.1046 4 19 4H5ZM7 9C7 8.44771 7.44684 8 7.99804 8H15.4834C16.0346 8 16.4814 8.44771 16.4814 9C16.4814 9.55228 16.0346 10 15.4834 10H14.4853V13C14.4853 13.5523 14.9322 14 15.4834 14H15.9824C16.5336 14 16.9804 14.4477 16.9804 15C16.9804 15.5523 16.5336 16 15.9824 16H15.4834C13.8298 16 12.4892 14.6569 12.4892 13V10H10.9922V14C10.9922 15.1046 10.0985 16 8.99609 16C8.44488 16 7.99804 15.5523 7.99804 15C7.99804 14.4477 8.44488 14 8.99609 14V10H7.99804C7.44684 10 7 9.55228 7 9Z" fill="#1BA5E8"/>
<path d="M7.99804 8C7.44684 8 7 8.44771 7 9C7 9.55228 7.44684 10 7.99804 10H8.99609V14C8.44488 14 7.99804 14.4477 7.99804 15C7.99804 15.5523 8.44488 16 8.99609 16C10.0985 16 10.9922 15.1046 10.9922 14V10H12.4892V13C12.4892 14.6569 13.8298 16 15.4834 16H15.9824C16.5336 16 16.9804 15.5523 16.9804 15C16.9804 14.4477 16.5336 14 15.9824 14H15.4834C14.9322 14 14.4853 13.5523 14.4853 13V10H15.4834C16.0346 10 16.4814 9.55228 16.4814 9C16.4814 8.44771 16.0346 8 15.4834 8H7.99804Z" fill="white"/>
</svg>
